<?xml version="1.0" encoding="utf-8"?>
<!-- Generator: Adobe Illustrator 18.1.1, SVG Export Plug-In . SVG Version: 6.00 Build 0)  -->
<svg version="1.1" xmlns="http://www.w3.org/2000/svg" xmlns:xlink="http://www.w3.org/1999/xlink" x="0px" y="0px"
	 viewBox="0 0 225 179" enable-background="new 0 0 225 179" xml:space="preserve">
<g id="background">
</g>
<g id="objects">
	<g>
		<g>
			<g>
				<defs>
					<rect id="SVGID_9_" x="12.4" y="-157.8" width="199.6" height="75.1"/>
				</defs>
				<clipPath id="SVGID_2_">
					<use xlink:href="#SVGID_9_"  overflow="visible"/>
				</clipPath>
				<g clip-path="url(#SVGID_2_)">
					<g>
						<g>
							
								<linearGradient id="SVGID_4_" gradientUnits="userSpaceOnUse" x1="-5.2848" y1="-69.3134" x2="244.4121" y2="-69.3134" gradientTransform="matrix(1 1.019766e-02 -1.019766e-02 1 3.5957 1.7759)">
								<stop  offset="0" style="stop-color:#4B2A1D"/>
								<stop  offset="2.865707e-02" style="stop-color:#5C331E"/>
								<stop  offset="7.705991e-02" style="stop-color:#71401F"/>
								<stop  offset="0.1307" style="stop-color:#804820"/>
								<stop  offset="0.193" style="stop-color:#894D21"/>
								<stop  offset="0.2848" style="stop-color:#8C4F21"/>
								<stop  offset="0.3622" style="stop-color:#884D21"/>
								<stop  offset="0.4374" style="stop-color:#7C4620"/>
								<stop  offset="0.5114" style="stop-color:#693B1F"/>
								<stop  offset="0.5818" style="stop-color:#4F2D1D"/>
								<stop  offset="0.8061" style="stop-color:#764220"/>
								<stop  offset="1" style="stop-color:#44271D"/>
							</linearGradient>
							<path fill-rule="evenodd" clip-rule="evenodd" fill="url(#SVGID_4_)" d="M224.1-6.1l0.9-170.6L3.4-177.8L2.3,43.8l220.9,1.1
								C223.2,27.9,223.7,10.9,224.1-6.1z"/>
							<g>
								<path fill="#32292E" d="M11.8,43.9l0.2,0c1.1-36.2,4.1-74,4.4-111.3c0-2.7,0.3-16.6,0.5-30.3c-0.1-9.7-0.2-19.3-0.2-29
									c0.5,1,0.4,14.9,0.2,29c0.4,31.6,1.1,63.6,1.2,95.6c0,0.1,0.5,28.4,1,46l0.9,0c0.7-53,3.1-104.7,3.7-157
									c-0.4,37.8,1,93.1,2.5,131.1c0.2,4.7,0.9,15.8,1.7,25.9l2.1,0c0-1.4-0.1-2.9-0.1-4.5c-2.4-67.4,2.7-145.3,4.4-217.1l-0.1,0
									C33-137.9,29.7-65.4,28.7-47.2C27.3-20.9,28-67.5,28-69.4c0.1-33.8,1.6-72.5,1.6-108.3l-1.8,0C27-141.5,26.2-88.1,25.4-76
									c-0.7,11.4,0.4-59.2,0-101.7l-2,0c-0.3,26.1,0.1,62.2-1.9,82.3c-0.7,6.3,0.5-48.3,1-82.3l-1.1,0
									c-1.2,32.6-2.6,82.5-2.9,64.9c-0.1-7.9,0.2-40.5,0.4-65l-0.6,0c-0.8,27.7-2,63.1-1.9,41.9c0-14.4,0.2-28.2,0.3-42l-1.4,0
									c-0.8,24.7-1.5,50.8-1.3,39.7c0.2-14,0.2-26.8,0.4-39.7l-1.2,0c0,6.3,0.1,10.8,0.1,10.9C12.6-96.6,12.4-26.3,11.8,43.9z"/>
							</g>
							<g>
								<path fill-rule="evenodd" clip-rule="evenodd" fill="#32292E" d="M57,26.8c0.2,1.7,0.9,10,1.5,17.3l1,0
									C57.7,3.2,59-36,58.5-76.7c-0.7-18.4-1.1-33.4-1.2-40.9c-0.8-51,0.8,20,1,26.9c0.1,4.7,0.2,9.3,0.3,14
									c1.5,38.4,4.1,91.5,7.3,120.9l2.9,0C68,31.7,67.1,17.7,66.8,7.6c-0.9-28.9-0.3-56.6-0.3-84.3c0-0.9-0.1-1.6-0.1-2.1
									c-0.2-3.9-0.2-36.4-0.1-28.7c0.2,10.3,0.2,20.6,0.2,30.8c0.8,16,4.5,85.4,8.3,120.9l3,0C77.1,23.4,76-5.9,75.9-10
									c-0.3-31.6,0.5-68.7-0.5-99.5c-0.4-0.4-1,102-1.1,117.3c0.1-11.5-1.2-31.2-1.3-45.6c-0.2-41.9,0-86.4-0.6-127.9
									c-0.1-8.4-1.9,40.5-2.3,80.9c0.3,21.7,0.5,43.2,0.4,43.2c-0.6-8.7-0.6-25.1-0.4-43.2c-0.2-20.5-0.5-41.3-0.5-44.5
									c0-0.2,0.5-27.4,0.6-48.2l-1.5,0c-0.6,25.4-0.4,60-2.2,74.2c-0.1,0,0.1-46,0-74.3l-1.1,0c-0.6,27.9-2,85.4-2.9,49.7
									c-0.1-4.8,0-28.6,0.1-49.7l-1.7,0c-0.3,11.4-1.5,65.5-1.8,42.6c0-0.9,0.1-21.7,0-42.7l-1.7,0c-0.6,26-1.5,52.2-2.2,28.4
									c-0.1-4.5,0-16,0.3-28.4l-2.1,0c-0.4,12.9-0.6,25.6-0.7,34.9c0.1-12,0-23.4-0.2-34.9l-0.8,0C51.4-159.1,51.1-140,52-121
									C54.1-77.8,52.8-14.9,57,26.8z"/>
							</g>
							<g>
								<path fill="#32292E" d="M117.1,44.4c-0.6-10.7-1.2-22.2-1.2-23.8c-0.1-3.3,0-14.6,0.1-29c-1.3-38.3-1.9-78.5-0.9-92.4
									c1.5,1,1.1,56.5,0.9,92.4c0.7,19.3,1.5,38.1,2.4,52.9l1,0c-0.8-13.7-1.7-27.9-1.7-29.2C117-13.5,117.6-44,118.2-74
									c-0.4-21.1-0.3-38.6,0.7-37.3c-0.2,12.2-0.4,24.7-0.7,37.3c0.5,27.5,1.5,61.3,1.7,67.6c0.5,16.3,1.3,34,2.7,50.8l1.3,0
									c-1.1-16.7-3-38.2-3.4-50.2c-0.3-10-0.2-27.1,0-44.8c-0.7-25.8-0.8-49.3-0.3-61.9c1,9.6,0.6,36.4,0.3,61.9
									c0.9,34,2.9,72.2,5.7,95l1.9,0c-1.3-24.7-3.9-70.7-4.1-79.6c-1.3-45.5-3.1-94.9-3.5-142l-2.2,0c-0.4,12.3-1,33.4-1.4,51.2
									c-0.1,17.5-0.2,30.6-0.3,30.6c-0.2-2.9,0-15.5,0.3-30.6c0.1-15.6,0.1-34.8,0.1-51.2l-2.1,0c-1,28.3-2.1,65.8-2.7,86.3
									c-0.1,9.4-0.2,19.3-0.3,29c0.4,38.7,1.5,80.8,3.5,106.3L117.1,44.4z"/>
								<path fill="#32292E" d="M89.6-71.4c0.7-21.1,1.7,31.6,2.1,60.5c1,19.8,2.2,40.3,3.4,55.1l1.6,0C96.1,28.4,95.4,8.6,95.4,5
									c0-1.9,0-11.1-0.1-22.1c-0.5-21.3-0.6-40-0.2-43.8c0,0.2,0.1,24.6,0.2,43.8c0.5,22.1,1.5,47,2.6,61.4l1.2,0
									C98.5,27.4,97.5-2,97.6-4.4c0-0.1,0.2-11.4,0.4-23.7c-0.4-10.7-0.5-19.5-0.3-24.2c0.8-16.5,0.6,5,0.3,24.2
									c0.8,23.5,2.8,56,4.4,72.4l2.1,0C104,29.9,103,0.6,103.1-6.5c0.1-19.8,0.5-39.6,0.9-59.3c-1-23-2.2-49.9-2.3-54.3
									c-0.2-8.1-0.2-35.1-0.3-57.1l-1.8,0c-0.7,41.2,1.4,92.2,1.1,129.7c0,3.6,0,6.6,0,9c0.2,9.4,0,11.7,0,0
									c-0.1-4.9-0.3-11.7-0.7-19.4c-1.7-36-4.2-80.5-3.9-119.3l-0.4,0c-0.7,28.8-0.8,74.6-0.3,108.4c0.8,20.8,1.6,41.1,1.5,41.6
									c-0.7-5.5-1.3-21.4-1.5-41.6c-0.8-20.8-1.7-42-1.7-44.4c-0.2-20.8,0-42.6,0.6-64l-0.3,0c-0.7,11.7-1.4,23.7-1.7,33.5
									c-0.3,10.4-0.9,43.8-0.8,72.6c1,20.6,2.1,42.6,1.6,44.1c-1.1-6.3-1.5-24.1-1.6-44.1c-0.8-15.8-1.6-30.8-1.6-34.7
									c-0.4-23.8-0.3-47.6,0.3-71.4l-0.2,0c-0.6,17.8-1.4,41.4-1.9,64.7c0.3,10.4,0.9,26.7,1.5,42.5C89.6-70.6,89.6-71,89.6-71.4z
									"/>
								<path fill="#32292E" d="M105-135.4c0.2-44.2,1.2,34,1.2,34.3c0.2,10.7,0.4,104.3,4.4,145.5l3.4,0
									c-0.9-17.6-2.2-41.5-2.3-46.2c-0.2-8.6,0-33.4,0.2-60.1c-0.1-5.8-0.1-11.6-0.1-17.1c0,0.5,0,1-0.1,1.4c0-0.5,0-1,0.1-1.5
									c-0.1-11.4-0.1-22.2,0-31.8c-0.3-20.8-0.9-46-1.3-66.3l-0.9,0c-0.5,41.2,0.6,84.3,0.3,125c-0.1,21-1-16.9-1.1-18.1
									c-1.8-33.9-3.7-71.6-3.7-106.9l-0.2,0c-0.2,8.5-0.3,15.7-0.3,16.3c0,4.8,0,26.3,0.1,50.4C104.8-118.8,105-127.1,105-135.4z"
									/>
								<path fill="#32292E" d="M92.9,44.3C92.6,31,92.1,15.8,92,6.6c0-0.1-0.1-7.3-0.3-17.5c-0.2-4.7-0.5-9.3-0.7-13.8
									c-1.4-0.1-2.3-6-2.8-15.6c0.4,17.6,1.7,58.4,2.8,84.5L92.9,44.3z"/>
							</g>
							<g>
								<path fill="#32292E" d="M216.2-68.3c0,0.6,0.1,1.1,0.1,1.6c0-0.4-0.1-0.9-0.1-1.5c0.1,5.7,0.2,11.5,0.2,17.4
									c0.8,26.6,1.4,51.4,1.4,60c0,3.8-0.5,20.2-1,35.7l3.7,0c2.3-45.4,0.9-126.4,0.9-136.3c0-0.3-0.6-78.8,0.5-34.6
									c0.2,8.2,0.5,16.4,0.7,24.6c-0.4-24-0.8-45.4-0.9-50.2c0-0.8-0.6-13.5-1-25.1l-0.1,0c1.2,37.7,0,79.4-1.3,116.7
									c0,1.2-0.2,39.4-0.7,18.4c-1.1-44-0.8-91-2.4-135.1l-0.6,0c0.1,21.7-0.1,52.4,0,76.8C215.8-90.3,216-79.7,216.2-68.3z"/>
								<path fill="#32292E" d="M204.8-21.6c-0.1,7.4-1.2,40.9-2.1,66.4l2.5,0c1.6-23.2,2.4-54.3,2.6-82.5
									c-0.8-25.5-1.7-52.3-0.9-62.1c0.8,12.5,1.1,36.1,0.9,62.1C208.5-20,209-3,208.8,7.1c-0.1,9.1-1,23.8-1.7,37.7l1.3,0
									c0.6-13,0.8-26.1,1-38.4c0.1-6.4,0.5-40.4,0.4-68.1c-0.5-12.5-1-24.9-1.4-37.1c1-1.6,1.4,15.9,1.4,37.1
									c1.2,29.9,2.4,60.3,2.3,89.3c0,0.9-0.3,8.2-0.6,17.3l0.9,0c0.4-12.6,0.7-26.9,0.9-41.4c-1-35.9-2.4-91.4-0.9-92.7
									c1.3,13.7,1.5,54,0.9,92.7c0.4,14.5,0.7,25.8,0.7,29.1c0,1.1-0.2,6.1-0.4,12.4l1.8,0c1-26,1.2-62.2,0.8-95.7
									c-0.3-9.8-0.6-19.8-0.8-29.4c-1.2-23.3-3.4-68.1-5-96.5l-1.7,0c0.3,18.4,0.8,43.3,1.3,62.8c0.6,15,1.1,27.6,0.9,30.5
									c-0.1,0-0.5-13-0.9-30.5c-1.1-24.7-2.7-55.9-2.9-60.6c0,0,0-0.8-0.1-2.2l-1.7,0C206.2-125.9,205.3-71.4,204.8-21.6z"/>
							</g>
							<g>
								<path fill="#32292E" d="M159.7-177c0.4,31.8-0.5,62.4-0.8,94.6c-0.3,29.4-2.1,97.9-2,97.6c1.2-6.6,4.8-83.9,5-93.7
									c0.5-21.9,0.5-65.1,0.5-98.5L159.7-177z"/>
								<path fill="#32292E" d="M127.6,44.4l2.4,0c0.8-8.2,1.5-16.1,1.7-19.9c2.4-38,4.9-93.3,5.3-131.1
									c-0.5,50.3,0.6,100.1,0.4,151l1.2,0c0.8-17.3,1.7-39.7,1.7-39.9c0.8-32.1,2.2-64,3.2-95.7c0.1-14.1,0.3-27.8,0.8-28.8
									c-0.2,9.6-0.5,19.2-0.8,28.8c-0.1,13.7-0.1,27.7-0.2,30.4c-0.5,35.2,1.5,70.8,2,105.2l0.4,0c0.8-68.1,2.1-136.3,2.8-204.5
									c0-0.1,0.2-7.8,0.5-17l-1.4,0c0,15-0.4,29.6-0.4,45.9c-0.1,12-0.2-19.6-0.6-45.9l-1.3,0c-0.1,15.9-0.3,31.6-0.6,48.1
									c-0.4,22.7-0.8-19.9-1.1-48.1l-0.5,0c-0.3,24.7-0.7,62.5-1,71.1c-0.7,18.7-1.1-39.1-1.7-71.1l-1,0
									c-0.2,33-0.2,95.1-0.8,88.4c-1.8-21.7-0.2-62.1-0.2-88.4l-1.8,0c-1.5,41.3-1.8,119.6-2.3,107.7
									c-0.5-12.8-0.2-71.9-0.2-107.7l-1.7,0c-1,37.4-0.1,78.6-0.8,114.3c0,1.9-0.3,48.5-1.2,22.1c-0.6-19.1-2.6-98.6-3-136.4l0,0
									C127.6-104.3,131.3-24.4,127.6,44.4z"/>
							</g>
							<g>
								<path fill="#32292E" d="M177.6,44.7c0.3-9.4,0.7-23.9,0.7-24.7c0.1-12.5,0-103.4-1.6-110.3c-0.5,45.3-1.7,89.8-2.4,135
									L177.6,44.7z"/>
								<path fill="#32292E" d="M174.2,44.7c0.1-40.2,0.1-138.1-0.5-139.7c-0.1,0.1-1.6,50.6-1.8,54.6c-1.8,29.2-3.1,56.6-3.8,85
									L174.2,44.7z"/>
								<path fill="#32292E" d="M179.1-54.6c-0.4,33.8-0.1,65.8-1.3,99.3l2.4,0c0.9-35.3,2.1-81.4,2-103.1c0-9.7-2-87.1-3.1-93.7
									C179.1-152.6,179.4-84,179.1-54.6z"/>
								<path fill="#32292E" d="M151.6-96.8c1.4-26.4,0.7,20.2,0.7,22.1c-0.1,37.3-2,80.6-1.6,119.2l1.5,0
									c0.8-35.1,1.8-99.2,2.6-112.6c0.8-12.4-0.7,73,0.2,112.6l1.6,0c0.7-25.9-0.3-70.2,2.2-93.2c0.7-7-0.8,62-1.2,93.2l0.9,0
									c1.2-30.5,3-95.6,3.3-75.9c0.2,9.1-0.3,51.6-0.6,75.9l0.4,0c0.8-27.8,2.3-76.9,2.2-52.9c0,18.1-0.3,35.4-0.5,52.9l1.2,0
									c1-27,1.9-63.4,1.7-50.6c-0.3,17.9-0.2,33.9-0.6,50.6l1.5,0c-0.1-11.2-0.1-21.7-0.1-21.8c0.6-59.5,0.8-119.1,1.3-178.5
									c-0.7,26.8-2.2,53.8-4.3,79.1c-0.2,2.2-0.4,12.4-0.6,23.7c0.2,11.9,0.3,23.8,0.3,35.6c-0.5-1.2-0.5-19.6-0.3-35.6
									c-0.4-29.5-1.1-59.2-1.1-89c0-0.1-0.4-18.7-0.8-35.1l-1.3,0c-0.9,49.2-3,97.4-3.5,146.1c0.4-37.8-1-93.1-2.6-131.1
									c-0.1-3-0.5-8.7-0.9-15l-2.6,0c1.9,68.1-3.3,146.1-4.8,217.5C146.9,3,150.6-77.5,151.6-96.8z"/>
							</g>
							<g>
								<path fill="#32292E" d="M36.9-168.4c-0.1,6.1-0.1,12.2-0.1,18.3c0.1,7.5,0.1,13.1,0,14.7c0,3.9,0,7.7,0,11.6
									C37.9-71.5,41,11.8,43.8,44l0.6,0c-0.7-15.9-2.2-47.2-2.3-54.4c-0.2-45.7,0.5-87.3-0.3-133.2c-0.6-32,0.6,31.6,0.6,32.8
									C43.6-61,42.5-5.2,48.3,44l1.4,0c-0.5-6.2-1.1-12.6-1.3-18.6c-1.4-31-1.3-62.6-1.7-93.6c-1.2-30-1.7-52.1-1.7-51.8
									c1,17,1.4,34.3,1.7,51.8c1.4,34.3,3.6,78.9,6.8,112.2l0.5,0c-1.2-14.7-2.7-35.4-2.9-48c-0.1-3-0.2-18.5-0.4-35.6
									c-0.7-16.8-1.1-33.1-0.9-47.5c0.2-11.5,0.6,20,0.9,47.5c1.3,28.4,3.7,58.2,6.8,83.6l0.7,0c-1.1-13.3-2.8-33.2-2.9-36.6
									c-3-57-2.8-109.8-4-166.1c-0.2-7-0.3-13.3-0.5-18.9l-2.8,0c0,6.7,0.1,14.4,0.1,23.1c0.1,7.1,1.3,51.3,0.3,19.4
									c-0.4-12.7-1-28.7-1.5-42.5l-2.1,0c0,7.9,0,17.5,0.1,29.1c0.1,8.9,1,52.7-1,16.9c-0.1-1.4-0.7-26.5-1.3-46l-1,0
									c0.2,23.9,0.5,58.7-0.1,48.4c-0.3-5.2-0.9-29.1-1.5-48.4l-1.3,0c0,0.5,0,1.1,0,1.6c0,10.2,1,75.8-0.5,25.1
									c-0.3-9-0.3-17.9-0.3-26.7l-1.2,0c0,3.8,0.1,7.6,0.1,11.4C36.7-167.5,36.8-168.3,36.9-168.4z"/>
								<path fill="#32292E" d="M35.9-142.7c-0.3-4.2,0-19.4,0.1-34.9l-2.6,0c1.2,50.1,4.2,102.4,3.3,149.8
									c-0.3,16.7-0.3,51.2,1.3,66.9c0.6,6.6-0.8-46.6-0.7-56.7C37.6-53,37-88.2,36.8-123.8c-0.1-4-0.2-7.8-0.2-11.4
									C36.5-135.9,36.2-138.3,35.9-142.7z"/>
							</g>
							<g>
								<path fill="#32292E" d="M79.2-108.6c-0.3-41.4-0.7-43.7,0.8-3.6c2.2,58.6,3.3,100.8,8.6,156.4l0.7,0
									C88,18.4,85-37.2,84.8-46.7c-0.9-46.1-1-85.5-0.1-130.7l-1.1,0c-0.5,29.8-1.4,79.2-1.6,60.9c-0.1-10.7,0.3-39.6,0.3-60.9
									l-1.2,0c-0.7,25-1.4,59-1.3,48.2c0.1-9,0.6-30.3,0.7-48.2l-1.6,0c-0.4,15.2-0.6,31.7-0.7,43.7c-0.4-15-0.3-29.3-0.1-43.7
									l-0.4,0c-0.4,15.6-0.9,30.7-1.4,36.2c0.9,33,0.1,91.8,3.9,115.8C80.4-25.4,79.2-106.5,79.2-108.6z"/>
							</g>
							<g>
								<path fill="#32292E" d="M191.5-73.7c-0.2-32,0.3-62.9-0.1-95.1c0-4.3,2.7,103.4,4.6,148.1c0.2,4.6,2,42,3.3,65.5l1.1,0
									c-0.3-24.1-0.6-62.5-1-84.5c-0.3-9.1-0.5-15.4-0.6-16.6c0.2,1.8,0.4,7.9,0.6,16.6c0.7,23.3,1.8,64.7,2.7,84.5l1.2,0
									c-0.1-23.4-2.1-72.4-2.6-88.5c-0.9-33-1.2-69.2-1.1-104.3c-0.1,18.1-0.4,36.3-1.1,53.5c-0.2-0.1-1.1-60.1-1.6-82.3l-1.1,0
									c0.3,21,0.6,46.4,0,53.5c-1,12.9-1.2-23.9-1.2-53.5l-0.4,0c-0.6,22.6-1.4,35.8-1.3,0l-0.5,0c-0.2,9.7-0.4,15.2-0.5,0l-0.5,0
									c-0.2,11.1-0.4,16.9-0.7,0l-0.2,0c-0.1,4.5-0.3,5.7-0.3,0l-2.2,0c-0.2,34.6,1.6,75.3,2.3,110.3
									C191.4-18.1,191.6-58.8,191.5-73.7z"/>
							</g>
							<g>
								<path fill="#32292E" d="M186.1,44.7l1,0l0-66.3l3.7,66.3l5.4,0c-1.6-20.6-3.2-46.8-4-63.2c0.2,13.1,0.5,31,0.8,41.3
									c0.8,14.6,1.6,30,0.2,7.5c-0.1-1.2-0.2-3.9-0.2-7.5c-0.4-7.6-0.8-14.9-0.8-16.6c-0.8-27-2-74-1.6-17.4
									c0.1,8.1,1.7,49.5,1.5,53.5c-1.9-15.3-3.6-49.1-4.4-65.8c-0.3-7.3-0.3-45.9-0.6-17.3C186.8-17.5,187,16.5,186.1,44.7z"/>
							</g>
							<g>
								<path fill="#32292E" d="M32.6,44l2,0c-2-36.1-1.2-71.4-3.5-106c-1,3.8,0.1,61.1,0.3,69.5C31.6,15.4,32.2,31.3,32.6,44z"/>
								<path fill="#32292E" d="M35,44l1.2,0c-0.1-0.9-0.1-1.8-0.2-2.7c-2.4-29.5-3.4-95.7-3.4-98.9c0.4,28.7,0.2,56.4,1.5,85.5
									C34.2,29.3,34.6,36.3,35,44z"/>
								<path fill="#32292E" d="M40.3,44c-0.9-18.4-1.5-36.7-1.4-46.4c-0.1,12.9-0.1,30.2,0.3,46.3L40.3,44z"/>
								<path fill="#32292E" d="M37.5,44C36,28.8,34.6,12.6,34.7,7.2C34.5,11,36.1,32.7,36.9,44L37.5,44z"/>
								<path fill="#32292E" d="M31.6,44c-0.7-11.4-0.9-23-1.3-34.1c-0.5-13.1-1.7-41.6-1.8-56.3c-0.2,31.1,1.3,60.3,2.3,90.4
									L31.6,44z"/>
								<path fill="#32292E" d="M15.7,43.9c-0.3-16.3-0.5-36.1-0.4-46c0.1-7.3-1.3,22.2-2.3,45.9L15.7,43.9z"/>
								<path fill="#32292E" d="M9.1-51.6c-0.3,24.5-0.5,49-0.8,73.4c-0.2,15-2.1-56.2-2-67.4C6-23,6-3,6.5,19.7
									C7.4,60,3.8-23,2.8-40.2L2.6-17.5C3,2.9,3.5,26,3.1,43.8l5.5,0C8.4,12.3,8.7-19.9,9.1-51.6z"/>
								<path fill="#32292E" d="M17.2,43.9c-0.5-14.1-1.3-32.5-1.4-22.7c-0.1,7.1,0.1,15,0.2,22.7L17.2,43.9z"/>
								<path fill="#32292E" d="M23.8,43.9c-0.9-18.8-2-42-1.9-45.8c-0.2,15-0.6,30.5-0.9,45.8L23.8,43.9z"/>
								<path fill="#32292E" d="M26,43.9c-1.8-21.2-3.4-42.7-3.5-44c0.9,14.4,1,29.1,1.4,43.9L26,43.9z"/>
							</g>
							<g>
								<path fill="#32292E" d="M83.2,44.2l2.1,0c-1.3-12.4-3.4-31.9-4.7-45.9c0.9,17,2.2,41.5,2.5,44.6
									C83.2,43.4,83.2,43.8,83.2,44.2z"/>
								<path fill="#32292E" d="M87.5,44.2c-1.2-11.1-2.8-26.1-4.1-38.3c0.9,12.6,1.9,27.8,2.5,38.3L87.5,44.2z"/>
								<path fill="#32292E" d="M81.3-15.3c0,0.6,0.9,9.6,2.1,21.2C82.3-9.3,81.3-20.6,81.3-15.3z"/>
								<path fill="#32292E" d="M82.4,44.2c-0.4-3.8-0.8-7.5-1.1-10.4c-0.8-7.9-2.6-31.3-3.4-37.4c0.3,2.8,1.6,29.3,2.4,47.7
									L82.4,44.2z"/>
							</g>
							<g>
								<path fill="#32292E" d="M135,44.5c-1.2-14.3-2.2-30.1-2.3-31.9c-0.9-13.8-0.8,13.6-0.7,31.9L135,44.5z"/>
								<path fill="#32292E" d="M143.3,44.5c-1-16.8-1.9-39.8-2.6-44.4c-0.1-0.5-0.3,23.9-1.1,44.4L143.3,44.5z"/>
							</g>
							<g>
								<path fill="#C99A80" d="M224.8-128.7c-1.6,22.1-3.3,44.5-3.8,66.9c-0.1,2.6-0.6,16.2-1,29.5c0,9.4-0.1,18.8-0.3,28.1
									c-0.5-1-0.2-14.5,0.3-28.1c0.1-30.8-0.1-62,0.3-93.2c0-0.2-0.1-35.6-0.4-51.1l-0.6,0c-1.6,53.7-5.2,105.9-6.7,158.8
									c1.1-36.7,0.6-90.6-0.4-127.8c-0.2-5.5-1-19.9-1.8-31.1l-1.9,0c0,2.8,0.1,6.2,0.2,10c1.3,65.9-5.4,141.7-8.4,211.5l0.1,0
									c2.1-38.4,6.8-109.4,8.2-127.1c1.9-25.6,0.4,19.7,0.4,21.6c-0.7,33-3,70.7-3.6,105.5l1.9,0c1.4-35.1,3.2-87.2,4.2-99
									c0.9-11-1.5,57.7-1.7,99l2,0c0.8-25.4,0.9-60.5,3.5-79.9c0.8-6.1-1.3,46.9-2.5,79.9l1.2,0c1.8-31.7,4.2-79.9,4.2-62.8
									c0,7.6-0.9,39.1-1.6,62.8l0.6,0c1.3-26.9,3.1-60.7,2.7-40.3c-0.3,13.8-0.7,27.1-1.1,40.3l1.5,0c1.3-23.8,2.4-48.6,2-37.9
									c-0.5,13.4-0.7,25.6-1.1,37.9l1.3,0c0.1-5.7,0.1-9.8,0.1-9.9c0.7-23.7,1.3-47.3,1.9-71L224.8-128.7z"/>
							</g>
							<g>
								<path fill-rule="evenodd" clip-rule="evenodd" fill="#C99A80" d="M158.2-24.7c0.4,0.4,2.8-99.1,3.2-114
									c-0.3,11.2,0.8,30.5,0.6,44.4c-0.5,40.8-1.5,84.1-1.6,124.5c0,8.2,2.7-39.3,3.8-78.6c0.1-21.2,0.2-42,0.3-42.1
									c0.4,8.5,0.2,24.5-0.3,42.1c-0.1,20-0.2,40.2-0.3,43.3c0,0.2-1,29.2-1.5,49.7l1.5,0c1.1-24.9,1.4-60.6,3.7-74.9
									c0.1,0-0.9,47.7-1.3,74.9l1,0c1-25.9,3.7-86.6,4-50.7c0.1,4.8-0.6,29.7-1,50.7l1.7,0c0-0.1,0-0.2,0-0.3
									c0-0.2,2.8-68.2,2.7-43.4c0,0.9-0.5,22.6-0.8,43.7l1.8,0c1.1-25.9,2.5-53.3,2.8-29.6c0.1,4.7-0.4,16.8-0.8,29.6l2.2,0
									c0.7-13.1,1.1-26.2,1.4-35.7c-0.4,12.3-0.4,23.9-0.4,35.7l0.8,0c0.6-18.4,1.4-37.5,0.7-56.7c-1.5-42.1,1-103.3-2.7-144.1
									c-0.2-2-1-13.1-1.6-20.7l-0.9,0c0,1,0.1,2,0.1,3.2c1.3,40.1-0.8,78.3-0.9,118.2c0.4,17.9,0.6,32.6,0.6,39.8
									c-0.1,49.7-0.5-19.6-0.6-26.2c0-4.6,0-9.1,0-13.6c-0.9-39-2.8-93.5-5.9-121.5l-2.8,0c0.4,12.9,1.3,28.2,1.4,38.9
									c0.4,28.2-0.6,55.1-1.1,82.1c0,0.8,0.1,1.5,0.1,2c0.2,3.8-0.4,35.4-0.4,27.9c0-10,0.1-20,0.3-29.9
									c-0.6-15.9-3.4-87.2-6.9-121l-2.9,0c0.4,20.3,1.1,51.3,1,55.5C159.2-90.8,157.7-54.7,158.2-24.7z"/>
							</g>
							<g>
								<path fill="#C99A80" d="M129-69c0.7,22.4,1.4,48.7,1.5,53c0.1,8.5-0.5,38.3-0.7,60.4l1.7,0c1.7-40.7,0.3-93,1.2-131
									c0.1-3.6,0.2-6.5,0.2-8.8c0-9.1,0.2-11.3,0,0c0,4.8,0.1,11.4,0.3,19c1.2,36.5,3.2,82.1,2,120.8l0.4,0
									C137,17,138-30.7,138-65.5c-0.5-20.2-1-40-0.9-40.6c0.7,5.4,1,20.9,0.9,40.6c0.5,20.3,1.1,41,1.1,43.3
									c-0.1,21.7-0.8,44.4-1.9,66.6l0.1,0c1-12.7,2.2-26.1,2.7-36.8c0.5-10.1,1.7-42.6,2.1-70.6c-0.7-20.1-1.4-41.6-0.9-42.9
									c1,6.2,1.2,23.5,0.9,42.9c0.6,15.5,1.1,30.1,1.1,33.9c0.1,24.5-0.6,49-1.7,73.5l0,0c0.1-0.5,0.1-1.1,0.2-1.6
									c1-17.5,2.3-41.5,3.2-65.3c-0.1-10.2-0.5-26.1-0.9-41.5c0,0.5,0,0.9,0,1.2c-1.1,20.4-1.2-30.7-1.2-58.9
									c-0.7-20-1.7-40.8-2.7-55.5l-1.6,0c0.3,15.7,0.8,36.2,0.8,39.7c0,1.8-0.1,10.9-0.3,21.6c0.2,20.8,0,38.9-0.5,42.5
									c0-0.2,0.3-23.9,0.5-42.5c-0.2-22.2-0.8-47.5-1.7-61.3l-1.1,0c0.2,16.1,0.8,46.4,0.7,48.8c0,0.1-0.4,11.1-0.8,23
									c0.2,10.4,0.2,19-0.1,23.6c-1.1,16-0.5-4.9,0.1-23.6c-0.5-23.5-2-56.1-3.5-71.8l-2.1,0c0.3,13.6,0.8,43.4,0.7,50.5
									C130.5-107.4,129.8-88.2,129-69z"/>
								<path fill="#C99A80" d="M109.7,44.3l2.1,0c0.5-9.8,1.8-35,2.7-55.6c0.4-17,0.8-29.7,0.9-29.7c0.2,2.8-0.2,15.1-0.9,29.7
									c-0.4,17.1-0.8,38.5-1.1,55.6l2,0c1.5-27.8,3.5-68,4.6-89.3c0.3-9.2,0.5-18.8,0.8-28.2c0.3-37.8-0.2-79-1.8-104l-1.7,0
									c0.4,10.5,0.9,21.8,0.9,23.4c0,3.2-0.3,14.2-0.6,28.3c0.7,37.4,0.6,76.5-0.7,90c-1.5-1-0.2-55,0.7-90
									c-0.4-18.9-0.9-37.3-1.6-51.7l-1,0c0.6,13.4,1.3,27.3,1.3,28.5c0.2,28-1,57.6-2.1,86.8c0,20.6-0.3,37.7-1.4,36.3
									c0.4-11.9,0.9-24,1.4-36.3c0-26.8-0.6-59.7-0.7-65.9c-0.3-15.9-0.7-33-2-49.4l-1.4,0c0.9,16.3,2.5,37.2,2.7,48.8
									c0.2,9.8-0.3,26.3-0.8,43.5c0.3,25.2,0,48.1-0.7,60.4c-0.9-9.4,0-35.6,0.7-60.4c-0.4-32.9-1.8-69.9-4.3-92.3l-2,0
									c1,24.2,2.8,68.6,3,77.2C109.1-53.7,110.2-3.3,109.7,44.3z"/>
								<path fill="#C99A80" d="M141.7,42.9c0,0.6-0.1,1.1-0.1,1.6l3.1,0c1.1-31.7,1.1-61.7,1.1-93.1c-0.2,8.4-0.5,17.3-0.9,26.1
									c0.1,4.2,0.1,7.5,0,9.3C144.6,8.1,143.6,25.3,141.7,42.9z"/>
								<path fill="#C99A80" d="M120.7-73.2c0,5.7-0.1,11.3-0.2,16.7c0-0.5,0.1-1,0.1-1.4c0,0.5-0.1,1-0.1,1.5
									c-0.1,11-0.3,21.5-0.5,30.8c-0.1,22.1,0.2,49.4,0.3,70l0.8,0c1.4-41.7,1-85.6,2-127c0.5-20.4,0.8,16.5,0.9,17.7
									c1.4,34.8,2.8,73.5,1.9,109.3l0.1,0c0.4-10.2,0.8-20.2,0.8-20.8c0.1-4.7,0.4-25.7,0.8-49.2c-0.3,8.1-0.5,16.2-0.7,24.3
									c-1,43-0.7-33.2-0.6-33.4c0-10.5,1.3-102.4-2.2-142.4l-3.5,0c0.6,17.2,1.6,40.8,1.6,45.5C122-123.4,121.4-99.2,120.7-73.2z"
									/>
								<path fill="#C99A80" d="M120.6-56.4L120.6-56.4C120.4-54,120.2-50,120-45c-0.9,33-1.7,60.4-1.1,50.9
									c0.4-7,0.8-18.1,1.2-31.6C120.1-38.3,120.2-49.3,120.6-56.4z"/>
							</g>
							<g>
								<path fill="#C8AEA9" d="M14.8,38.5C13.9,0.4,16-42.2,18.1-80c0.1-1.2,0.9-38.3,1.1-17.9C19.6-51.6,18.3-2,19.7,43.9l0.2,0
									C20,23.2,21-13,21.3-41c-0.1-9.3-0.1-19.7-0.1-30.8c0-0.5,0-1-0.1-1.5c0,0.4,0,0.9,0.1,1.4c0-5.5,0-11.1,0.1-16.9
									c-0.3-26-0.6-50.2-0.5-58.5c0.1-3.4,0.8-16.7,1.5-30.4l-3.9,0C15.5-133,15.5-59,15.4-49.6c0,0.3-0.8,76.7-1.1,33.6
									c-0.1-8-0.2-16-0.4-24C13.9-16.6,14,4.2,14,9C14,9.8,14.5,26.2,14.8,38.5z"/>
								<path fill="#C8AEA9" d="M2.5,20.1c0.3,5.2,0.7,10.5,1,15.5C3,25,2.7,14.1,2.5,3.3L2.5,20.1z"/>
								<path fill="#C8AEA9" d="M10.8-30.4c0.1-4.3,1.2-30.8,2.2-53.3c-0.5-19.2-0.9-38.5-1.1-57.8c-0.1-5.1,0.4-22,0.9-36.2l-2.9,0
									c-1.3,17.1-2.6,40.2-3.2,58C6.9-101,7.2-80.1,6.3-96.1c-0.3-4.6-0.1-13.2,0.2-23.6c-0.2-11.9-0.5-23-0.5-23.1
									c0-1.8,0.5-19.4,1-35l-1.6,0c-0.7,13.9-1.3,31.6-1.7,47.7c0,18.7,0,42.5-0.1,42.6C3.2-91,3.2-109.2,3.7-130
									c0-10.8,0-19.9,0-21.7c0-2.5,0.4-13.9,0.8-26l-1.1,0L2.8-50.2C3.1-58.3,3.5-69,4-79.6c0.2-19.8,0.7-35.4,1.5-40.8
									C5.5-119.9,4.8-100,4-79.6C3.5-38.1,4,21.7,5.4,43.8l0.2,0C3.8,2.7,6.9-49.8,8.8-90.9c0.4-7.6,0.5-14.2,0.6-19
									c-0.1-11.5,0.1-9.2,0,0c0,2.3,0,5.2,0.1,8.7C9.9-58.7,7.2,1.8,9.4,43.8l1,0C10.8,22.9,10.6-20,10.8-30.4z"/>
								<path fill="#C8AEA9" d="M25.7,43.9l1.3,0c0.1-18-0.1-48.3-0.3-70.9c-0.4-14.6-0.7-26.9-0.4-29.7c0.1,0,0.3,12.7,0.4,29.7
									c0.7,24.1,1.8,54.6,2,59.2c0,0.1,0.3,5.5,0.6,11.7l1.3,0c-0.2-52.2,1.8-108.8,3.2-160.5c0.2-6.9,1.8-36.9,3.1-61.1l-2.8,0
									c-1.9,22-3.2,50.6-3.9,76.6c0.4,24.8,0.9,51-0.1,60.5c-0.6-12.3-0.5-35.2,0.1-60.5c-0.3-17.2-0.5-33.8-0.2-43.6
									c0.3-8,1.2-20.6,2.2-33l-1.4,0c-0.7,11.4-1.1,22.8-1.5,33.6c-0.2,6.2-1.2,39.3-1.6,66.2c0.3,12.2,0.6,24.4,0.9,36.3
									c-1.1,1.5-1.2-15.6-0.9-36.3c-0.8-29.2-1.5-58.9-0.9-87c0-0.7,0.3-6,0.7-12.9l-0.9,0c-0.6,11.2-1.1,23.6-1.5,36.3
									c0.4,35,1,89.1-0.6,90.3c-1.1-13.4-0.6-52.7,0.6-90.3c-0.2-14.1-0.3-25.1-0.2-28.4c0-0.8,0.2-3.8,0.4-7.9l-1.9,0
									c-1.3,24.8-2.1,58-2.3,88.9c0.1,9.5,0.3,19.2,0.4,28.5C22.7-34.6,24.5,17.9,25.7,43.9z"/>
								<path fill="#C8AEA9" d="M3.9,43.8c-0.1-2.6-0.3-5.3-0.4-8.2c0.1,2.7,0.2,5.4,0.3,8.2L3.9,43.8z"/>
							</g>
							<g>
								<path fill="#BCA4A3" d="M78.8,44.2C79.3,15.3,79-12.3,78.2-42c-0.1-4,0.3-53.1,0.2-53.2c-0.8,1.5-4.9,102.9-6.2,139.3
									L78.8,44.2z"/>
								<path fill="#BCA4A3" d="M68.7,44.1l3.4,0C73.3-1,73.7-45.6,75-90.9C73-84.3,69.4,4,69,16.2C69,17.1,68.8,36,68.7,44.1z"/>
								<path fill="#BCA4A3" d="M81.3,44.2c0.2-17.4,1-33.7,1.4-52.3c0.3-12.9-0.2,25.7-0.2,52.3l1.2,0c0.5-18,0.9-35.7,1.6-54.3
									c0.9-24.2,0.5,27.9,0.3,54.3l0.3,0c0.7-23.1,1.9-67.3,2.5-76.5c1.2-19.7,0.4,48,0.5,76.5l0.8,0c0.8-29.1,2-100.2,2.5-93.1
									c1.7,23.3-1.3,68.3-1.4,93.1l1.5,0c2.5-37.3,4.4-124,4.7-111.7c0.4,13.4-1.2,78-1.7,111.7l1.5,0c2-38,1.8-81.1,3.1-117.9
									c0.1-1.8,1.2-47.2,1.6-21.4c0.3,18.8,1,97.4,0.8,133.9c1.3-70.9-1.3-149.1,3.8-216.1l-2.6,0c-0.9,7.7-1.7,15-2,18.6
									c-3.2,36.8-6.7,90.5-7.8,127.2c1.4-48.6,1-96.7,2.1-145.8l-1.3,0c-1.1,16.6-2.4,37.4-2.4,37.5c-1.3,31.1-3.4,62-5,92.6
									c-0.4,13.8-0.8,27.4-1.4,28.3c0.4-9.4,0.9-18.9,1.4-28.3c0.4-13.2,0.6-26.7,0.7-29.3c1.1-33.7-0.3-67.9-0.3-100.9l-0.4,0
									c-2,65.7-4.5,131.4-6.4,197.2c0,0.1-0.6,12.3-1.2,24.3L81.3,44.2z"/>
								<path fill="#BCA4A3" d="M68.6,44.1c-0.1-34.1,1.5-66.3,2.5-100.5c0.8-28.6,3.8-95.2,3.7-94.8c-1.3,6.4-6.5,81.4-6.9,90.8
									c-1,23.2-1.8,71.2-2.4,104.5L68.6,44.1z"/>
							</g>
							<g>
								<path fill="#C8AEA9" d="M50.8-177.5c-1.5,33.7-3.4,76.1-3.7,96.5c-0.1,9.5,0.7,84.9,1.6,91.4c0.1,0.4,0.9-66.3,1.7-95
									c0.9-31.6,1.2-61.7,2.9-92.9L50.8-177.5z"/>
								<path fill="#C8AEA9" d="M66.9-85.2c0-11.6,0.1-23.2,0.3-34.7C67.7-118.7,67.4-100.8,66.9-85.2C66.8-56.5,67-27.6,66.6,1.4
									c0,0.1,0.1,25.5,0.3,42.7l1.1,0c1.7-50.8,5-100.2,6.5-150.4c-1.1,36.7-0.6,90.6,0.4,127.8c0.1,4.2,0.6,13.5,1.2,22.7l2.4,0
									c0-0.5,0-1,0-1.6C77-25.2,84.1-103.5,87-175c-1.9,36.4-7.1,114.5-8.5,133.2c-1.9,25.6-0.4-19.7-0.4-21.6
									c0.8-35.6,3.4-76.8,3.7-113.9l-1.7,0c-1.4,34.5-3.5,94.6-4.6,107.4c-1,11.8,1.8-67.9,1.8-107.4l-1.8,0
									c-1.1,25.4-0.9,66.7-3.8,88.3c-0.9,6.6,1.7-56.9,2.7-88.3l-1,0c-1.8,30.5-4.6,89.9-4.7,71.2c0-8.6,1.1-47.3,1.8-71.2l-0.5,0
									c-1.3,27.3-3.6,71.4-3.1,48.7c0.3-16.7,0.8-32.6,1.3-48.7l-1.3,0c-1.5,25.9-2.9,58.3-2.5,46.3c0.6-16.4,0.8-31.1,1.4-46.3
									l-1.5,0c-0.1,9.7-0.2,18.2-0.2,18.3C62.7-101.3,61.5-43.4,60,14.4c1.2-26,3.2-52.2,5.9-76.7C66.1-64.4,66.6-74.3,66.9-85.2z
									"/>
								<path fill="#C8AEA9" d="M59.2,44.1c0.3-9.9,0.5-19.8,0.8-29.7c-0.5,10-0.8,19.9-1,29.7L59.2,44.1z"/>
							</g>
							<g>
								<path fill="#C99A80" d="M198.5-8.4c0,3.9,0,7.6,0,11.1c0.1,0.7,0.3,3,0.6,7.4c0.2,4.1-0.4,19.3-0.7,34.7l2.8,0
									c-0.4-49-2.6-100.3-0.9-146.5c0.6-16.3,1.2-49.8-0.2-65.2c-0.6-6.4,0,45.4-0.2,55.2C198.9-77.2,198.9-43,198.5-8.4z"/>
								<path fill="#C99A80" d="M183,24.7c0,7.5,0.1,14.1,0.2,20l2.9,0c0.1-6.9,0.2-14.8,0.3-23.9c0-6.9-0.5-50,0.1-18.9
									c0.2,12.8,0.5,29.1,0.9,42.8l2.2,0c0.1-7.9,0.3-17.6,0.4-29.6c0.1-8.7-0.1-51.3,1.3-16.4c0.1,1.4,0.3,26.8,0.6,46l1,0
									c0.2-23.3,0.5-58.4,1-48.1c0.2,5.2,0.5,29.2,0.8,48.1l1.4,0c0-0.8,0-1.6,0-2.4c0.1-10,0.2-73.8,0.9-24.4
									c0.1,9,0,18-0.2,26.9l1.3,0c0-3.9,0.1-7.9,0.1-11.8c-0.1,1.3-0.2,2-0.4,2.1c0.2-5.9,0.3-11.8,0.4-17.7
									c0-7.3,0.1-12.9,0.2-14.4c0.1-3.8,0.1-7.5,0.2-11.3c-0.3-53.7-2.3-141.2-4.8-168.4l-0.4,0c0.4,12.9,1.7,50,1.6,57.8
									c-0.6,44.4-2,85-2,129.6c0,31.2,0-30.8-0.1-32c-0.4-50,1.8-106.1-4-155.5l-1.3,0c0.6,7.4,1.2,15.3,1.4,22.6
									c0.9,30.3,0.2,61,0.2,91.2c0.7,29.3,0.9,50.8,0.9,50.5c-0.8-16.6-0.9-33.5-0.9-50.5c-0.9-34.9-2.5-80.7-5.6-113.8l-0.4,0
									c1,14.3,2.5,37.5,2.5,51c0,2.9-0.1,18.1-0.2,34.7c0.5,16.4,0.6,32.2,0.1,46.3c-0.4,11.2-0.2-19.4-0.1-46.3
									c-0.9-29.2-3.1-60-6.2-85.7l-0.5,0c0.9,12.5,2.6,36,2.7,39.7C183.8-81.5,182.7-30.2,183,24.7z"/>
								<path fill="#C99A80" d="M198.4,2.9c-0.1,4.8-0.2,9.6-0.2,14.4c0,4.7,0,10.1-0.1,15.6c0.4-4.4,0.5-15.4,0.5-30.2
									C198.5,2.3,198.4,2.4,198.4,2.9z"/>
							</g>
							<g>
								<path fill="#C99A80" d="M147.2,44.5l1.2,0c1-28.4,2.9-81.5,2.8-62.9c-0.1,11-1,41.9-1.4,62.9l1.2,0
									c1.2-24.5,2.7-61.3,2.3-50.3c-0.3,9.3-1.2,32.4-1.7,50.3l1.6,0c0.8-15.6,1.3-33.3,1.7-45.8c0.2,15.8-0.2,30.8-0.8,45.8
									l0.3,0c0.8-16.2,1.6-32.7,2.2-38.5c-0.4-32.1,1.4-89.4-2.1-113c-0.2,0-0.3,79.1-0.3,81.1c-0.4,40.3,0,42.5-0.9,3.4
									c-1.3-57.8-1.7-99.3-6.5-154.7l-0.6,0c0.9,24.3,3.1,81.1,3.2,90.6C149.6-40.2,149-0.9,147.2,44.5z"/>
								<path fill="#C99A80" d="M156.7,6.1c0,2.9,0.1,5.7,0.2,8.2c0.1,2.9,0.2-1.4,0.4-9C157.2,3.2,157,3.8,156.7,6.1z"/>
								<path fill="#C99A80" d="M157.3,5.2c0,0.7,0.1,1.8,0.1,3.3c0.2,12.6,0,24.4-0.3,36l1.9,0c0.5-41.4-0.1-79.7-1-123.6
									c-0.6-27.8-0.5,18-0.4,21.9C157.9-46.9,157.6-12.1,157.3,5.2z"/>
							</g>
							<g>
								<path fill="#C99A80" d="M27.3,5c0.5-17.7,1.1-35.3,2.1-52c0.2,0.1,0.2,84.2,0.3,88c0,1,0.1,2,0.1,3l1,0
									c0.1-21.4,0.1-54.6,0.9-62.8c1.4-14,0.7,33.3,0.1,62.8l0.1,0c1.2-29.6,2.8-54.3,1.6,0l0.3,0c0.5-14.9,1.1-32.6,0.8-5.8
									c0,1.2,0,3.2-0.1,5.8l0.4,0c0.5-16.2,1.1-32.4,1.1-9c0,1.2,0,3.2,0,5.5c0.4-11.9,0.9-17.4,0.4,3.5l6.2,0
									C43.1-0.3,43-71.5,41.6-76.4c-0.2,39.3-1.8,75.8-2.9,114.5c1-34.6-0.3-76.3-0.4-111.9c-0.2-47.2-1-7.5-1.2,7
									c-0.4,31.2-1.4,61.2-1.6,92.5c0,4.2-1.1-100.8-2.3-144.4c-0.1-4.2-1.2-36.1-2.1-58.9l-1.3,0c-0.2,23.5-0.4,57-0.3,77.1
									c0.1,8.9,0.2,15.2,0.3,16.4c-0.2-1.7-0.3-7.8-0.3-16.4c-0.3-20.9-0.7-56.5-1.2-77.1l-1.5,0c-0.1,24.2,1.1,66.5,1.3,81
									C28.3-64.5,28-29.2,27.3,5z"/>
								<path fill="#C99A80" d="M26.3,43.9C26.7,31.3,27,18.2,27.3,5C26.9,18.1,26.6,31.2,26.3,43.9L26.3,43.9z"/>
							</g>
							<g>
								<path fill="#32292E" d="M5.4,43.8l1.1,0c1.6-29.6,3.9-59.9,4.1-89.8c0-2.7,0.3-16.6,0.5-30.3c-0.2-9.8-0.4-19.5-0.4-29.2
									c0.6,1,0.6,15,0.4,29.2c0.6,31.6,1.8,63.5,2,95.6c0,0.1,0.3,11.6,0.8,24.5l2.3,0c1-45.9,3.2-91.1,3.6-136.7
									c-0.3,38,1.7,93.2,3.9,131.2c0.1,1.4,0.2,3.3,0.4,5.5l3.9,0C26.1-22,31.9-97.2,33.4-165.8C32.1-128,27.7-46.8,26.5-27.4
									c-1.7,26.6-1-20.2-1-22.1c0-40.1,2.5-87.5,1.3-128.2l-1.5,0c-0.9,32.2-1.9,107.1-3,121.9c-1,13.6,0.8-88.6-1.1-121.9l-1.2,0
									c-1.7,23.4,0.6,76.5-2.8,103c-1,8,1.1-79.7,1.1-103l-0.7,0c-1.4,23.1-3.8,108.1-4.4,86c-0.3-10.5,0.3-65.8,0.4-86.1l-0.2,0
									c-0.8,23.2-2.9,90.7-2.9,63.3c-0.1-21.7,0.2-42.2,0.5-63.3l-1.2,0c-1.3,26.9-2.6,75.9-2.4,61.3c0.4-21.7,0.1-40.5,0.9-61.3
									l-2.4,0c0.2,14.2,0.5,32.4,0.5,32.5C5.7-82.1,5.8-19.1,5.4,43.8z"/>
							</g>
							<g>
								<path fill-rule="evenodd" clip-rule="evenodd" fill="#E5D4D0" d="M63,43c0,0.2,0.1,0.6,0.1,1.1l2.4,0
									c-1.4-35.2-0.4-69.8-1.2-105.3c-1-18.3-1.6-33.3-1.8-40.7c-1.2-51.1,1.1,20,1.4,26.8c0.2,4.7,0.3,9.3,0.4,13.9
									c1.7,32.4,4.6,75.3,8,105.3l4.5,0c-0.6-7.9-1.2-15.6-1.4-21.9c-1.2-28.9-0.7-56.7-0.8-84.5c-0.1-0.9-0.1-1.6-0.2-2.1
									c-0.3-3.9-0.5-36.4-0.3-28.7c0.3,10.3,0.4,20.6,0.4,30.9c1,14,5,69.5,9.4,106.4l5,0C88.1,26,87.2,6.7,87.1,3.4
									c-0.6-31.6,0.3-68.9-1.1-99.7c-0.5-0.3-0.8,102.4-0.9,117.8C85.2,10,83.3-9.6,83.2-24c-0.5-42-0.4-86.7-1.4-128.2
									c-0.2-8.4-2.2,40.9-2.6,81.5c0.4,21.8,0.9,43.2,0.7,43.3c-0.8-8.7-0.9-25.1-0.7-43.3c-0.4-20.6-0.8-41.4-0.8-44.6
									c0-0.2,0.7-42.7,0.5-62.1l-1.4,0c-1.4,25-0.3,71.2-2.9,88.6c-0.2,0-0.1-66.2-0.6-88.7l-0.8,0c0,0.2,0,0.3,0,0.4
									c0,0.4-2.1,110.2-3.8,64.1c-0.2-6-0.1-41.6-0.2-64.6l-1.6,0c-0.1,3.7-0.3,8-0.4,12.9c0,0.2-1.7,70.6-2.1,45.1
									c0-1.1,0-33.2-0.3-58l-1.7,0c-0.6,28.9-1.8,72.8-3,44.3c-0.3-6.5,0.2-27,0.5-44.3l-2.3,0c-1,17.7-1.3,37.9-1.4,51.1
									c0.2-17.7-0.4-33.8-0.7-51.1l-0.5,0c-0.1,23.4-1.2,48.3,0.4,72.9C58.9-61.6,57.5,1.7,63,43z"/>
							</g>
							<g>
								<path fill="#32292E" d="M139.4,44.5c-0.6-7.9-1.1-14.7-1.1-16c-0.1-3.3-0.1-14.6,0-29.2c-1.8-38.3-2.8-78.5-1.5-92.6
									c1.9,0.8,1.7,56.5,1.5,92.6c0.8,16.1,1.7,31.8,2.7,45.1l1.2,0c-0.9-10.9-1.7-20.5-1.7-21.6c-1-28.7-0.3-59.3,0.3-89.5
									c-0.6-21.2-0.6-38.7,0.7-37.5c-0.2,12.3-0.4,24.9-0.7,37.5c0.7,27.6,2.3,61.2,2.6,67.5c0.7,14,1.5,29.1,2.9,43.6l1.8,0
									c-1.5-15.3-3.4-32.7-3.9-43.1c-0.5-10-0.3-27.1-0.2-44.8c-1-25.8-1.3-49.4-0.7-62.1c1.3,9.5,1,36.5,0.7,62.1
									c1.2,30.9,3.5,65.1,6.7,88l2.9,0c-1.9-25.4-4.9-64.9-5.2-73.1c-2-47.6-4.7-99.4-5.3-148.6l-2.5,0
									c-0.3,9.4-1.3,36.6-1.8,58.6c0,17.5-0.2,30.6-0.3,30.6c-0.3-2.8-0.1-15.5,0.3-30.6c0-18,0-40.7-0.1-58.6l-2.4,0
									c-1.1,28.9-2.6,71.7-3.4,94.2c-0.1,9.5-0.1,19.5-0.2,29.2c0.6,34.9,2,72.5,4.2,98.2L139.4,44.5z"/>
								<path fill="#32292E" d="M108.6,44.3c-0.4-10-0.8-19.8-0.9-26.5c0-0.1-0.2-7.3-0.4-17.5c-0.3-4.7-0.6-9.3-0.9-13.8
									c-1.8,0.1-3-5.7-3.7-15.3c0.5,15.2,1.9,47.6,3.3,73L108.6,44.3z"/>
								<path fill="#32292E" d="M123.7-126.4c0.1-44.3,1.7,34,1.7,34.2c0.3,10,0.9,92.6,5.3,136.6l4.8,0c-1.1-16-2.5-33.8-2.6-37.8
									c-0.2-8.6-0.1-33.5,0-60.3c-0.1-5.8-0.2-11.6-0.2-17.2c0,0.5,0,1-0.1,1.5c0-0.5,0-1,0.1-1.5c-0.1-11.3-0.2-22-0.1-31.6
									c-0.5-23.7-1.7-53-2.2-74.5l-0.8,0c-0.7,43.9,1,89.9,0.9,133.5c-0.1,21.1-1.4-16.8-1.5-18c-2.7-36.6-5.5-77.6-5.1-115.5
									l-0.1,0c-0.3,11.6-0.6,24.4-0.6,25.2c0,4.9,0.1,27.2,0.4,51.8C123.6-108.9,123.7-117.6,123.7-126.4z"/>
								<path fill="#32292E" d="M104.3-60c0.8-21.2,2.3,31.5,3,60.4c1.1,15.2,2.3,30.8,3.5,44l2.5,0c-0.7-13-1.3-25.8-1.3-28.5
									c0-1.9-0.1-11.2-0.2-22.2c-0.8-21.3-1-40-0.5-43.8c0,0.1,0.3,24.7,0.5,43.8c0.6,17.3,1.5,36.4,2.6,50.8l1.9,0
									C115.7,28,114.8,8,114.8,6c0-0.1,0.2-11.5,0.4-23.8c-0.5-10.7-0.7-19.5-0.5-24.3c0.9-16.7,0.8,4.9,0.5,24.3
									c0.9,19.4,2.9,44.8,4.8,62.2l3.4,0c-0.7-15.1-1.7-35.4-1.6-41.2c0.1-19.9,0.5-39.8,0.9-59.7c-1.4-22.9-3-49.7-3.2-54.1
									c-0.3-9.3-0.4-43.6-0.9-66.5l-1.9,0c-1.4,42.9,2,98.9,1.8,139.5c0,3.7,0,6.7,0,9.1c0.3,9.3,0,11.6,0,0
									c-0.1-4.9-0.4-11.7-0.9-19.5c-2.6-39-6.4-88-5.4-129.2l-0.4,0c-1,27.2-1.1,80.8-0.2,118.9c1.2,20.7,2.3,40.9,2.2,41.5
									c-1-5.4-1.7-21.3-2.2-41.5c-1.2-20.7-2.4-42-2.4-44.3c-0.5-24-0.1-49.3,0.8-74c-0.9,14.6-2.2,31-2.7,43.6
									c-0.3,10.5-1,44.1-0.7,73c1.4,20.5,2.8,42.4,2.2,43.9c-1.4-6.1-2-23.9-2.2-43.9c-1.1-15.8-2.1-30.7-2.2-34.6
									c-0.7-25.3-0.6-50.7,0.2-76.3c-0.1,0.7-0.2,1.4-0.2,2.2c-0.7,18.2-1.7,43.1-2.2,67.7c0.4,10.4,1.3,26.7,2.1,42.5
									C104.3-59.2,104.3-59.6,104.3-60z"/>
							</g>
							<g>
								<path fill="#32292E" d="M197.3,44.8l2.2,0c0.8-26.1,1.3-70.5,1.2-89.2c-0.4,9.7-1.4,15.9-3.1,16.5c-0.1,4.6-0.3,9.3-0.4,14
									c0.1,10.2,0.2,17.5,0.2,17.6C197.5,13.7,197.2,30.8,197.3,44.8z"/>
								<path fill="#32292E" d="M179.9-64.8c1.1,19.7,2.2,39.4,2.9,59.2c0.3,6.9-0.1,35.3-0.3,50.3l2.7,0c1.6-17.2,3.1-50,3.5-73.7
									c-1-19.2-1.9-40.6-0.4-24.3c0.4,4.6,0.5,13.5,0.4,24.3c0.6,12.2,1.2,23.5,1.2,23.6c0.1,2.4-0.2,33.3-0.4,50.2l1.4,0
									c1-14.6,1.5-40.7,1.5-63.6c-0.5-19.2-1.1-43.7-1-43.9c0.7,3.6,1.1,22.3,1,43.9c0.3,11,0.5,20.3,0.5,22.2
									c0.1,3.6-0.3,25.1-0.6,41.4l1.9,0c1.1-15.4,2.1-37.5,2.8-58.6c-0.3-29.1-0.6-82.2,0.9-61.3c0,0.4,0.1,0.8,0.1,1.3
									c0.3-16,0.6-32.6,0.7-43.1c-1.2-21.3-2.7-42.8-4-59.7l-0.3,0c1.3,22.2,2.1,44.5,2.3,67c0,3.9-0.5,19.2-1,35.3
									c0.5,20,0.5,38-0.7,44.6c-0.6-1.3,0-23.7,0.7-44.6c-0.7-28.9-2.5-62.2-3.2-72.5c-0.6-8.8-1.7-19.4-2.8-30l-0.5,0
									c1.3,20.4,2.2,41,2.5,61c0,2.4-0.4,24-0.9,45.1c0.2,20.3,0.1,36.4-0.7,42.2c-0.1-0.5,0.3-21.1,0.7-42.2
									c-0.4-33.1-1.8-77.4-3.5-106.1l-0.6,0c1.4,38.2-0.5,82.7-1.5,118.6c-0.2,7.9-0.3,14.8-0.2,19.7c0.4,11.7,0.1,9.4,0,0
									c-0.1-2.4-0.2-5.4-0.3-9c-1.4-37.2-0.4-88.5-2.4-129.3l-2.3,0c0.4,22,1.3,48.8,1.3,56.9C181.2-115.4,180.5-88.1,179.9-64.8z
									"/>
								<path fill="#32292E" d="M155.2-27c-0.1,7.9-1.5,45.6-2.5,71.6l3,0c2.2-23.9,3.3-57.8,3.4-88.2c-1.1-25.4-2.4-52.2-1.4-62.1
									c1,12.5,1.6,36,1.4,62.1c0.8,17.7,1.5,34.6,1.4,44.8c-0.1,10.3-1.4,27.8-2.4,43.4l1.7,0c0.9-14.9,1.2-30.1,1.4-44.2
									c0.1-6.4,0.4-40.6,0.2-68.3c-0.7-12.5-1.4-24.9-2-37.1c1.3-1.7,1.8,15.8,2,37.1c1.7,29.8,3.4,60.2,3.4,89.2
									c0,1.1-0.5,11.7-1,23.4l1.2,0c0.6-14,1-30.7,1.2-47.8c-1.4-35.9-3.5-91.4-1.6-92.8c1.7,13.6,2.2,54,1.6,92.8
									c0.6,14.5,1,25.8,1,29.1c0,1.4-0.3,9.7-0.7,18.7l2.2,0c1.5-26.4,1.6-66.2,0.9-102.7c-0.4-9.7-0.8-19.7-1.2-29.2
									c-1.5-21.5-4.3-61.5-6.4-89.7l-2.5,0c0.5,17.6,1.2,39.2,1.8,56.5c0.9,15,1.5,27.6,1.3,30.5c-0.1,0-0.7-13-1.3-30.5
									c-1.3-20.9-3-46.4-3.7-56.5l-2.5,0C156.4-127.8,155.6-75.2,155.2-27z"/>
								<path fill="#32292E" d="M169.5-75.5c0,0.5,0.1,1.1,0.1,1.6C169.6-74.3,169.6-74.8,169.5-75.5c0.1,5.7,0.2,11.6,0.3,17.4
									c1.1,26.6,2.1,51.5,2.1,60.1c0,4.4-0.8,25.3-1.4,42.6l4.4,0c3.4-44,1.1-133.5,1-144c0-0.3-1.1-78.9,0.5-34.8
									c0.3,8.7,0.7,17.3,1.1,25.9c-0.6-24.6-1.3-46.7-1.4-51.6c0-0.6-0.5-8.3-1-17.1l-0.2,0c1.2,35.6-0.1,74.4-1.4,109.3
									c0,1.2-0.1,39.5-0.9,18.6c-1.5-41.6-1.5-86-3.4-127.9l-1,0c0.1,21,0.1,48,0.3,70C168.9-97.4,169.3-86.8,169.5-75.5z"/>
							</g>
							<g>
								<path fill="#32292E" d="M193.5-176.8c0.7,32.3-0.3,63.4-0.6,96.2c-0.3,29.6-2.2,98.5-2.1,98.1c1.5-6.8,5.8-84.8,6-94.6
									c0.6-22.2,0.4-66.1,0.2-99.7L193.5-176.8z"/>
								<path fill="#32292E" d="M153.7,44.6l3.4,0c0.7-6,1.2-11.3,1.4-14.2c2.9-38.5,5.8-94.2,6.2-132.2
									c-0.4,48.9,1.2,97.1,1.2,146.5l1.7,0c0.9-16.6,1.7-35.4,1.7-35.5c0.8-32.2,2.5-64.3,3.7-96.2c0.1-14.2,0.3-28.2,0.9-29.3
									c-0.2,9.7-0.6,19.5-0.9,29.3c-0.1,13.7,0,27.6-0.1,30.3c-0.4,34.1,2,68.2,2.9,101.4l0.6,0c0.7-67.2,2-134.5,2.6-201.7
									c0-0.1,0.3-9.4,0.6-19.8l-1.8,0c0.1,16.1-0.3,31.6-0.3,48.9c0,12.5-0.4-22-1-48.9l-1.5,0c-0.1,17-0.2,33.8-0.6,51.5
									c-0.5,23.8-1.2-23.4-1.7-51.5l-0.5,0c-0.2,24.6-0.6,65.9-1,74.9c-0.9,19.6-1.7-43.9-2.6-74.9l-1.1,0
									c-0.2,31.8,0.2,99.6-0.6,92.7c-2.5-22.7-0.4-66.6-0.7-92.7l-2.1,0c-1.9,40.2-2,125-2.7,112.7c-0.8-13.4-0.6-77.5-0.8-112.7
									l-2,0c-1.3,38.9,0.1,82.2-0.6,119.7c0,1.9-0.2,48.7-1.4,22.3c-0.9-19.2-3.8-99.8-4.4-137.3
									C152.7-101.2,157.6-23.8,153.7,44.6z"/>
							</g>
							<g>
								<path fill="#32292E" d="M218.8-55.6c-0.3,34.2,0.2,66.5-1.2,100.5l3.1,0c1-35.6,2.3-82.8,2.1-104.8
									c-0.1-9.8-3-87.1-4.4-93.6C218.4-153.9,219.1-85.2,218.8-55.6z"/>
								<path fill="#32292E" d="M213,44.9c0-40.2-0.5-138.8-1.4-140.3c-0.1,0.1-1.8,50.9-2.1,55c-2.2,29.3-3.7,56.8-4.5,85.2
									L213,44.9z"/>
								<path fill="#32292E" d="M217.4,44.9c0.3-9.4,0.8-24.8,0.8-25.6c0.1-12.6-0.5-103.7-2.5-110.4c-0.4,45.5-1.8,90.5-2.4,136
									L217.4,44.9z"/>
								<path fill="#32292E" d="M183.5-94.1c1.7-26.6,1,20.2,1,22.1c0,36.4-2.1,78.8-1.5,116.7l2.1,0c0.8-35.8,1.7-97.2,2.7-110.5
									c0.9-12.3-0.5,69.9,0.7,110.5l2.2,0c0.7-26.3-0.6-68.8,2.3-91.6c0.9-7-0.6,59.3-1,91.6l1.2,0c1.4-31.5,3.3-93.9,3.8-74.6
									c0.2,8.9-0.1,50-0.4,74.6l0.5,0c0.9-28.2,2.5-75.5,2.6-51.8c0,17.8-0.2,34.7-0.4,51.8l1.5,0c1.1-27.1,2.1-62.5,1.9-49.9
									c-0.3,17.7-0.2,33.4-0.5,49.9l1.9,0c-0.2-11-0.3-21-0.3-21.1c0.5-59.8,0.5-119.5,0.8-179.1c-0.8,27-2.6,54.2-5.2,79.9
									c-0.2,2.3-0.5,12.4-0.6,23.6c0.3,12,0.5,24,0.6,35.9c-0.7-1.1-0.8-19.7-0.6-35.9c-0.7-29.4-1.6-59.1-1.9-88.9
									c0-0.1-0.6-19.4-1.2-36l-1.7,0c-0.9,49.8-3.4,98.8-3.8,148.1c0.3-38-1.7-93.2-3.9-131.2c-0.2-3.4-0.8-9.9-1.4-17l-3.3,0
									c3,68.6-3.4,148.6-5,221.2C178,6.6,182.3-74.7,183.5-94.1z"/>
							</g>
							<g>
								<path fill="#CDB8B5" d="M36.9-9c-0.2,12.8-0.2,35.8,0.7,53l1.1,0c-0.4-14.9-1.2-36.7-1.1-42.8c0.2-35.6-0.7-70.8-1.1-106.4
									c-0.1-4-0.2-7.9-0.3-11.5c-0.2-0.7-0.5-3.1-0.9-7.5c-0.6-5.8,0.3-33.6-0.1-53.5l-3.8,0C32.6-121.8,37.9-62.7,36.9-9z"/>
								<path fill="#CDB8B5" d="M36.4-150c-0.1,6.1-0.1,12.2-0.1,18.3c0.2,7.6,0.2,13.3,0.1,14.9c0,3.9,0.1,7.8,0.1,11.7
									C38-61,41.3,5.3,44.5,44l1.4,0c-0.9-14.9-1.9-31.4-2-36.4c-0.4-45.8,0.2-87.7-1-133.5c-0.9-32,0.9,31.6,0.9,32.8
									C45.3-49.1,44.6-0.2,49.7,44l2.4,0c0-0.4-0.1-0.8-0.1-1.2C50,11.9,50-19.6,49.3-50.6c-1.7-30.1-2.4-52.3-2.4-52
									c1.4,17,2,34.4,2.4,52c1.6,28.7,4,64.5,7.2,94.7l0.9,0c-1.1-11.2-2-22.9-2.3-31.1c-0.1-3-0.4-18.6-0.7-35.6
									c-1-16.7-1.5-33-1.3-47.5c0.2-11.6,0.8,19.9,1.3,47.5c1.4,22.4,3.7,45.7,6.7,66.8l1.5,0c-1-9.4-2-18.1-2.2-20.3
									c-4.1-56.8-4.1-109.8-5.9-166.1c-0.5-14.9-1-26.6-1.5-35.3l-2.8,0c-0.1,9.5,0,22.8,0.3,39.9c0.1,7.1,1.9,51.3,0.4,19.4
									c-0.9-18.5-2.1-44.2-3.1-59.4l-1.8,0c-0.1,9.3,0,24.2,0.3,46.4c0.1,8.9,1.5,52.7-1.1,17.1c-0.1-1.8-1.8-47.8-2.7-63.5
									l-0.6,0c0,15,1.4,79.8,0.3,66.2c-0.6-7.1-2-48.7-3-66.3l-0.9,0c0,4.4,0,10.8,0.1,19.8c0.1,10.3,1.6,75.9-0.5,25.3
									c-0.6-15.2-0.4-30.2-0.6-45l-1.4,0c-0.2,7.6-0.1,18.9,0.1,29.8C36.1-149.1,36.3-149.9,36.4-150z"/>
							</g>
							<g>
								<path fill="#32292E" d="M90.8-95.9c-0.6-41.5-1.1-43.7,1-3.7c2.9,54.2,4.5,94.5,10.3,143.9l1.5,0c-2-28-5-70.7-5.3-78.9
									c-1.5-49.2-1.7-91-0.6-140.4c0-0.6,0-1.4,0-2.3l-1.4,0c-0.4,25.5-1.5,94.2-1.9,73.1c-0.2-12.9,0.3-52.5-0.1-73.1l-1.1,0
									c-0.9,24-1.9,73.4-1.8,60.6c0.1-11.2,0.9-41.8,0.7-60.6l-1.6,0c-0.9,18-1.1,41-1.3,56.4c-0.7-19.3-0.5-37.7-0.1-56.4l-0.3,0
									c-0.5,19.3-1.3,42-1.9,49.1c1.4,32.9,0.6,92.1,5.5,115.6C92.7-12.6,90.8-93.9,90.8-95.9z"/>
							</g>
							<g>
								<path fill="#C99A80" d="M130.6,44.4l3.1,0c0.7-12.3,1.8-31.4,2.6-47.7c0.4-17.1,0.8-29.9,1-29.9c0.3,2.8-0.2,15.1-1,29.9
									c-0.4,14.5-0.8,32.2-1,47.7l3,0c1.7-27.4,3.8-62.7,5-82.3c0.3-9.3,0.6-19,0.9-28.5c0.2-41.7-0.7-87.4-3.6-110.8l-1.9,0
									c0.6,11.9,1.6,28.4,1.6,30.5c0,3.2-0.3,14.3-0.7,28.4c1.1,37.4,1.1,76.7-0.4,90.3c-2-0.8-0.5-55.2,0.4-90.3
									c-0.6-22.2-1.6-43.8-2.9-58.9l-1.2,0c1,15.1,2.2,34.3,2.3,35.9c0.4,28-1,57.9-2.3,87.3c0.1,20.7-0.2,37.8-1.6,36.6
									c0.4-12,1-24.3,1.6-36.6c-0.1-26.9-1-59.8-1.2-65.9c-0.5-18.5-1.3-38.7-3.7-57.2l-1.3,0c0.9,16.7,3.8,43,4.2,56.7
									c0.3,9.8-0.3,26.4-0.8,43.7c0.5,25.2,0.3,48.2-0.6,60.6c-1.1-9.3-0.2-35.6,0.6-60.6c-0.8-37.7-3.1-80.3-7.4-100.5l-1.6,0
									c1,19.9,4.4,76,4.6,85.7C129.2-47.9,130.7-0.8,130.6,44.4z"/>
								<path fill="#C99A80" d="M175.4-9.3c-0.4,20.3-1.4,37.1-3.6,54l3.6,0c1.1-30.6,0.9-59.5,0.9-89.7c-0.3,8.5-0.6,17.4-1,26.4
									C175.3-14.4,175.4-11.1,175.4-9.3z"/>
								<path fill="#C99A80" d="M154.7-63c1,22.4,2.1,48.6,2.1,52.9c0.1,7.7-0.4,33.4-0.5,54.7l2.4,0c1.5-40.1-0.3-89.4,0.7-125.8
									c0.1-3.6,0.2-6.5,0.2-8.8c-0.1-9.1,0.2-11.4,0,0c0,4.8,0.2,11.4,0.5,19c1.7,34.8,4.3,77.9,3.2,115.7l0.6,0
									c1.4-28.3,2.3-72.7,2.2-105.5c-0.8-20.2-1.5-39.9-1.4-40.5c0.9,5.3,1.3,20.8,1.4,40.5c0.8,20.3,1.6,41.1,1.6,43.4
									c0,20.2-0.7,41.3-1.9,62.1l0.4,0c1.1-11.3,2.3-23,2.8-32.4c0.6-10.2,2-42.9,2.3-71.1c-1-20-2-41.5-1.4-42.9
									c1.4,6.1,1.6,23.4,1.4,42.9c0.8,15.4,1.6,30,1.6,33.8c0.2,23.1-0.4,46.4-1.7,69.7l0.2,0c1.2-17.4,2.6-40.5,3.6-63.3
									c-0.2-10.2-0.8-26.1-1.3-41.4c0,0.5,0,0.9-0.1,1.2c-1.3,20.7-1.7-30.7-1.8-59c-1.1-21.8-2.6-44.5-4.1-59.1l-1.8,0
									c0.5,16,1.3,40,1.3,43.8c0,1.8-0.1,10.9-0.3,21.6c0.3,20.8,0.2,39.1-0.5,42.8c0-0.1,0.3-24.1,0.5-42.8
									c-0.4-24.8-1.4-53.3-3-65.4l-1.1,0c0.3,14.2,1.3,50.6,1.2,53.3c0,0.1-0.5,11.2-1,23.2c0.3,10.4,0.3,19.1,0,23.7
									c-1.4,16.2-0.7-4.8,0-23.7c-0.8-26.4-3.4-64.1-5.6-76.5l-2.1,0c0.2,8.5,1.5,47.5,1.2,55.8C156.5-101.8,155.6-82.4,154.7-63z
									"/>
								<path fill="#C99A80" d="M144.1-66.3c0,5.7-0.1,11.3-0.1,16.8c0-0.5,0.1-1,0.1-1.4c0,0.5-0.1,1-0.1,1.4
									c-0.1,11.1-0.3,21.6-0.6,31c0,19.7,0.4,43.3,0.6,62.9l1.3,0c1.3-39.8,0.7-81.2,1.7-120.4c0.5-20.5,1.1,16.5,1.2,17.7
									c1.9,32.6,3.7,68.7,3.1,102.8l0.3,0c0.4-7.7,0.7-14,0.7-14.5c0.1-4.8,0.4-26.5,0.8-50.5c-0.3,8.5-0.6,17-0.8,25.6
									c-1,43.2-1-33.2-1-33.4c0-11.1,1.4-113.5-4.3-148.7l-4,0c0.9,17,2.6,46.7,2.7,52C145.5-116.7,144.9-92.4,144.1-66.3z"/>
								<path fill="#C99A80" d="M144-49.4C144-49.4,144-49.4,144-49.4c-0.2,2.5-0.4,6.5-0.7,11.6c-1,33.2-1.9,60.8-1.2,51.2
									c0.5-7,1-18.2,1.3-31.8C143.4-31.1,143.5-42.2,144-49.4z"/>
							</g>
							<g>
								<path fill="#C8AEA9" d="M19.7,43.9L19.7,43.9c-0.9-37.1,1.4-78.4,3.8-115.3c0.1-1.2,1-38.6,1.3-18.1
									c0.7,43.4-0.5,90,1,133.4l0.7,0c0.2-21.3,1.1-52.2,1.3-76.7c-0.2-9.3-0.3-19.6-0.3-30.6c0-0.6-0.1-1.1-0.1-1.6
									c0,0.4,0.1,0.9,0.1,1.5c0-5.5,0-11.2,0-17c-0.6-26-1-50.3-0.9-58.7c0.1-4,1.2-22.3,2.2-38.4l-4.8,0
									c-4.2,43.8-3.8,127.2-3.9,137.1c0,0.3-0.6,77-1.3,33.9c-0.1-8.5-0.3-16.9-0.6-25.3c0.1,24,0.3,45.5,0.3,50.3
									C18.7,19.2,19.2,32.4,19.7,43.9z"/>
								<path fill="#C8AEA9" d="M27.5-63.4c0.4,7.1,0.4,18,0.3,30.6C28.1-19.1,28.4-7.9,28.9-1c0.6,9.4,0-18-0.7-51
									c-0.3-5-0.5-9-0.6-11.6C27.5-63.5,27.5-63.5,27.5-63.4z"/>
								<path fill="#C8AEA9" d="M33.3,44l2.2,0c0-18.2-0.4-43.6-0.7-63.3c-0.6-14.6-1-26.9-0.7-29.7c0.1,0,0.4,12.7,0.7,29.7
									c1,24.1,2.6,54.4,2.8,59.1c0,0,0.1,1.7,0.3,4.3l2.2,0c-0.3-50.3,1.9-104.6,3.4-154.2c0.2-7.5,2.5-42.2,4.1-67.4l-3.3,0
									c-2.7,23.1-4.5,54.8-5.3,83.4c0.6,24.8,1.4,51.1,0.1,60.7c-0.8-12.2-0.9-35.2-0.1-60.7c-0.4-17.2-0.8-33.8-0.5-43.7
									c0.3-9.5,1.9-25.2,3.2-39.7l-1.8,0c-1.2,13.7-1.8,27.5-2.2,40.4c-0.2,6.3-1.4,39.6-1.7,66.6c0.5,12.2,0.9,24.4,1.3,36.3
									c-1.4,1.6-1.5-15.5-1.3-36.3c-1.1-29.2-2.2-58.8-1.6-87.1c0-1,0.6-9.7,1.4-20l-1.3,0c-0.8,13-1.6,28.2-2.2,43.7
									c0.7,35.1,1.7,89.2-0.3,90.6c-1.5-13.3-1.1-52.7,0.3-90.6C32.2-148,32-159.1,32-162.3c0-1.2,0.4-7.7,0.9-15.3l-2.4,0
									c-2,25.7-2.9,62.8-3,97.1C27.8-71,28-61.3,28.2-52C29.4-28.8,31.7,16.4,33.3,44z"/>
								<path fill="#C8AEA9" d="M14.3-20.6c0.1-4.4,1.4-31,2.6-53.7c-0.7-19.3-1.4-38.5-1.7-57.9c-0.1-6.3,0.7-30.4,1.3-45.5l-3.1,0
									c-2,17.4-4,46.6-4.8,68.1c0.6,18.7,1.1,39.6-0.1,23.7C8-90.4,8.1-99,8.5-109.6c-0.4-11.9-0.8-23-0.8-23.1
									c-0.1-2.2,0.8-28.2,1.4-45.1l-1.7,0c-1.2,14.6-2.2,37.7-2.6,58.1C4.9-100.8,5-76.9,5-76.8c-0.6-3.6-0.6-21.8-0.1-42.8
									c0-10.8-0.1-19.9-0.1-21.7c0-3.3,0.7-21.2,1.3-36.4l-2.2,0c-0.2,1.9-0.4,3.8-0.5,5.8L2.5,14c0.7,9.4,1.7,19.9,2.6,29.9
									l0.1,0C4,20.9,3.3-2.5,3.5-25.1c0-2.3,1-23.4,1.9-44c0.2-19.8,0.8-35.5,1.7-41.1c0.1,0.5-0.8,20.6-1.7,41.1
									C5-32.9,5.7,16.8,7.1,43.8l0.4,0C6.2,4.6,9.4-43.1,11.5-81c0.4-7.6,0.6-14.3,0.7-19.1c-0.1-11.5,0.2-9.3,0,0
									c0,2.3,0.1,5.2,0.1,8.7c0.7,39.1-1.9,94.1,0,135.2l2,0C14.5,21.4,14.2-11.6,14.3-20.6z"/>
							</g>
							<g>
								<path fill="#BCA4A3" d="M94.4,44.3c0.4-13,0.9-25.8,1.3-39.8c0.3-11,0,15.3,0,39.9l1.9,0C97.9,30.4,98.4,16.5,99,2
									c0.9-21,0.8,15,0.6,42.3l0.8,0c0.8-24.1,1.8-57.1,2.4-64.9c1.2-17.5,0.9,33.1,1,65l1.4,0c0.8-33.1,1.8-88.4,2.4-82.2
									c1.9,19.9-0.5,56.5-1.2,82.2l2.6,0c2.6-41.4,4.3-112.7,4.7-101.4c0.5,12.1-0.9,66.1-1.5,101.4l2.4,0
									c1.7-35.6,1.4-74.3,2.8-108.1c0.1-1.9,1.3-47.5,2-21.7c0.5,18.1,1.7,91.7,1.6,129.9l0.1,0c1.1-70.8-2.3-147.9,4-214.9
									c0.2-2.4,0.4-4.6,0.6-6.7l-2.7,0c-1.7,10.6-3.4,22.9-3.9,27.9c-3.9,37.4-8.2,91.7-9.4,128.7c1.7-52.2,0.8-103.7,2.3-156.7
									l-1,0c-1.5,16.8-3.7,48.1-3.8,48.2c-1.6,31.4-4,62.7-6,93.6c-0.4,13.9-1,27.5-1.6,28.6c0.5-9.5,1-19,1.6-28.6
									c0.4-13.3,0.6-26.9,0.7-29.5c1.4-37.8-1.2-75.8-0.8-112.4l-0.2,0c-2.3,69.9-5.4,140-7.6,210c0,0.1-0.3,4.9-0.6,11.6
									L94.4,44.3z"/>
								<path fill="#BCA4A3" d="M78,44.2c0.2-28.9,1.8-57.1,2.8-86.6c0.9-28.8,4.5-96,4.4-95.6c-1.7,6.6-7.9,82.5-8.4,92
									c-1,20.1-1.7,58.5-2.3,90.1L78,44.2z"/>
								<path fill="#BCA4A3" d="M91.2,44.3c0.1-24.3-0.4-48.1-1.4-73.2c-0.2-4,0.2-53.3,0-53.4c-0.9,1.4-4.8,82.9-6.7,126.6
									L91.2,44.3z"/>
								<path fill="#BCA4A3" d="M78.3,44.2l4.6,0c1-40.7,1.3-80.9,2.7-121.8c-2.4,6.9-6.7,95.9-7.1,108.2
									C78.4,31.1,78.3,37.4,78.3,44.2z"/>
							</g>
							<g>
								<path fill="#C8AEA9" d="M55-177.5c-1.8,35.3-4.8,89.7-5.1,113.6c-0.1,9.5,1.2,85.1,2.5,91.5c0.1,0.4,0.9-66.7,1.8-95.5
									c1.1-34.4,1.2-66.9,3.8-101.2c1.2-16.4-1.4,26.8-1.4,28.2c-0.4,12.3-1.8,101.1,0.2,107.8c1.6-48.3,4.4-96,6-144.3L55-177.5z
									"/>
								<path fill="#C8AEA9" d="M66.4,44.1c0.1-4.7,0.3-9.4,0.4-14.1c-0.3,4.7-0.5,9.4-0.7,14.1L66.4,44.1z"/>
								<path fill="#C8AEA9" d="M75.2-70.7c0-11.7,0-23.4,0.2-35C76.1-104.5,75.7-86.4,75.2-70.7c0,28.7,0.4,57.7,0,86.8
									c0,0.1,0.1,13.9,0.3,28l2.2,0c2.1-46.1,5.5-91.4,7-137.1c-1.2,37-0.3,91,1.1,128.1c0.1,2,0.3,5.3,0.6,9.1l3.8,0
									c-0.8-65.2,7.2-139.7,10.3-207.8c-2.2,36.8-8.5,115.7-10.2,134.6c-2.4,25.9-0.6-19.7-0.6-21.6c0.9-39.8,4.7-86.7,4.2-126.8
									l-1.5,0c-1.7,30.2-4.5,105.9-6,120.6c-1.4,13.5,2.9-89.9,1.5-120.6l-1,0c-2.6,21.8-1.2,75.6-5.4,102
									c-1.3,7.9,3.1-81.9,3.5-102l-0.6,0c-1.9,19.9-6.5,107.4-6.7,85.3c-0.1-10.5,1.9-66.8,2.4-85.3l-0.2,0
									c-1.2,21.2-5.1,90.2-4.6,62.9c0.4-21.6,1.2-41.9,2-62.9l-1.2,0c-2,25.8-4.6,75.3-4,60.9c0.9-21.6,1-40.2,2.4-60.9l-2.6,0
									c-0.1,13.9-0.2,32.7-0.3,32.8C69.8-86.4,68.5-28.1,66.8,30c1.4-26.2,3.9-52.7,7.2-77.6C74.3-49.8,74.8-59.7,75.2-70.7z"/>
							</g>
							<g>
								<path fill="#C99A80" d="M24.9,25.1c0.5-17.8,1.2-35.5,2.5-52.4c0.2,0,0.4,45.5,0.6,71.2l1.5,0c0-18.2,0.1-37.2,0.9-43.2
									c1.4-11.4,1.3,16.4,0.8,43.2l0.8,0c0.9-14.1,1.6-19.8,1.4,0l0.9,0c0.1-0.5,0.1-0.6,0.1,0l1,0c-0.3-10.9-1.9-103.4-3.6-143.6
									c-0.2-5.7-3-62-4.2-78l-0.5,0c0,18.8-0.4,70-0.1,96.8c0.2,8.9,0.4,15.1,0.5,16.3c-0.3-1.7-0.4-7.8-0.5-16.3
									c-0.8-33.6-2.1-105.6-3.4-91.4c-1.4,15.1,1.2,77.1,1.6,95.5C25.9-44.6,25.7-9.2,24.9,25.1z"/>
								<path fill="#C99A80" d="M44.8,44C45,0.5,44.4-54.3,42.9-58.4c-0.1,35-1.6,68.1-2.8,102.4L44.8,44z"/>
								<path fill="#C99A80" d="M35.7,44c0.2-2,0.3-2.4,0.4,0l3.9,0c0.4-31.9-1.1-67.9-1.4-99.3c-0.4-47.3-1.3-7.4-1.5,7.2
									c-0.3,31-1.4,61-1.6,92.1L35.7,44z"/>
								<path fill="#C99A80" d="M24.5,43.9c0.2-6.2,0.3-12.5,0.4-18.8C24.7,31.4,24.6,37.7,24.5,43.9L24.5,43.9z"/>
							</g>
						</g>
						
							<rect x="2.9" y="-177.2" transform="matrix(1 4.997722e-03 -4.997722e-03 1 -0.3305 -0.5689)" opacity="0.5" fill-rule="evenodd" clip-rule="evenodd" fill="#B4805D" width="221.6" height="221.6"/>
					</g>
				</g>
			</g>
		</g>
		<g>
			<path fill="#EFE6BF" d="M213.7,175.7H10.6c-2.5,0-4.5-2-4.5-4.5V52.4c0-2.5,2-4.5,4.5-4.5h203.2c2.5,0,4.5,2,4.5,4.5v118.7
				C218.3,173.7,216.2,175.7,213.7,175.7z"/>
			<rect x="6.1" y="90.7" fill="#DA495E" width="212.2" height="58.8"/>
			<g>
				<g>
					<rect x="99.7" y="40.1" fill="#EFE6BF" width="25.1" height="10.8"/>
					<path fill="#695D74" d="M129.6,42.8H94.9c-2.5,0-4.5-2-4.5-4.5V4.5c0-2.5,2-4.5,4.5-4.5h34.7c2.5,0,4.5,2,4.5,4.5v33.8
						C134.1,40.8,132.1,42.8,129.6,42.8z"/>
					<path fill="#433451" d="M94.9,39.2c-0.5,0-0.9-0.4-0.9-0.9V4.5c0-0.5,0.4-0.9,0.9-0.9h34.7c0.5,0,0.9,0.4,0.9,0.9v33.8
						c0,0.5-0.4,0.9-0.9,0.9H94.9z"/>
					<g>
						<rect x="98.5" y="6.4" fill="#AFBCCC" width="27.5" height="20.1"/>
						<path fill="#98A9BD" d="M126,6.4H98.5V12c10.6-0.7,23.1,2.7,21.6,14.5h5.9V6.4z"/>
					</g>
				</g>
				<path fill="#DA495E" d="M67.8,66.7h-5.4c-2.5,0-4.5-2-4.5-4.5V37.9c0-2.5,2-4.5,4.5-4.5h5.4c2.5,0,4.5,2,4.5,4.5v24.2
					C72.3,64.7,70.3,66.7,67.8,66.7z"/>
				<path fill="#433451" d="M174.2,170.2H50.1c-2.5,0-4.5-2-4.5-4.5V64.9c0-2.5,2-4.5,4.5-4.5h124.1c2.5,0,4.5,2,4.5,4.5v100.8
					C178.7,168.1,176.7,170.2,174.2,170.2z"/>
				<path fill="#EFE6BF" d="M56.4,163.9c-2.5,0-4.5-2-4.5-4.5V71.2c0-2.5,2-4.5,4.5-4.5H168c2.5,0,4.5,2,4.5,4.5v88.2
					c0,2.5-2,4.5-4.5,4.5H56.4z"/>
				<g>
					<defs>
						<path id="SVGID_12_" d="M56.4,163.9c-2.5,0-4.5-2-4.5-4.5V71.2c0-2.5,2-4.5,4.5-4.5H168c2.5,0,4.5,2,4.5,4.5v88.2
							c0,2.5-2,4.5-4.5,4.5H56.4z"/>
					</defs>
					<clipPath id="SVGID_6_">
						<use xlink:href="#SVGID_12_"  overflow="visible"/>
					</clipPath>
					<g clip-path="url(#SVGID_6_)">
						<g>
							<g>
								<rect x="48.4" y="57.6" fill="#AFA9B5" width="2.1" height="114.5"/>
								<rect x="52.9" y="57.6" fill="#AFA9B5" width="2.1" height="114.5"/>
								<rect x="57.4" y="57.6" fill="#AFA9B5" width="2.1" height="114.5"/>
								<rect x="61.8" y="57.6" fill="#AFA9B5" width="2.1" height="114.5"/>
								<rect x="66.3" y="57.6" fill="#AFA9B5" width="2.1" height="114.5"/>
								<rect x="70.8" y="57.6" fill="#AFA9B5" width="2.1" height="114.5"/>
								<rect x="75.3" y="57.6" fill="#AFA9B5" width="2.1" height="114.5"/>
								<rect x="79.8" y="57.6" fill="#AFA9B5" width="2.1" height="114.5"/>
								<rect x="84.3" y="57.6" fill="#AFA9B5" width="2.1" height="114.5"/>
								<rect x="88.8" y="57.6" fill="#AFA9B5" width="2.1" height="114.5"/>
								<rect x="93.3" y="57.6" fill="#AFA9B5" width="2.1" height="114.5"/>
								<rect x="97.8" y="57.6" fill="#AFA9B5" width="2.1" height="114.5"/>
								<rect x="102.2" y="57.6" fill="#AFA9B5" width="2.1" height="114.5"/>
								<rect x="106.7" y="57.6" fill="#AFA9B5" width="2.1" height="114.5"/>
								<rect x="111.2" y="57.6" fill="#AFA9B5" width="2.1" height="114.5"/>
								<rect x="115.7" y="57.6" fill="#AFA9B5" width="2.1" height="114.5"/>
								<rect x="120.2" y="57.6" fill="#AFA9B5" width="2.1" height="114.5"/>
								<rect x="124.7" y="57.6" fill="#AFA9B5" width="2.1" height="114.5"/>
								<rect x="129.2" y="57.6" fill="#AFA9B5" width="2.1" height="114.5"/>
								<rect x="133.7" y="57.6" fill="#AFA9B5" width="2.1" height="114.5"/>
								<rect x="138.2" y="57.6" fill="#AFA9B5" width="2.1" height="114.5"/>
								<rect x="142.7" y="57.6" fill="#AFA9B5" width="2.1" height="114.5"/>
								<rect x="147.1" y="57.6" fill="#AFA9B5" width="2.1" height="114.5"/>
								<rect x="151.6" y="57.6" fill="#AFA9B5" width="2.1" height="114.5"/>
								<rect x="156.1" y="57.6" fill="#AFA9B5" width="2.1" height="114.5"/>
								<rect x="160.6" y="57.6" fill="#AFA9B5" width="2.1" height="114.5"/>
								<rect x="165.1" y="57.6" fill="#AFA9B5" width="2.1" height="114.5"/>
								<rect x="169.6" y="57.6" fill="#AFA9B5" width="2.1" height="114.5"/>
								<rect x="174.1" y="57.6" fill="#AFA9B5" width="2.1" height="114.5"/>
								<rect x="178.6" y="57.6" fill="#AFA9B5" width="2.1" height="114.5"/>
							</g>
							<rect x="48.8" y="57.6" fill="#FFFFFF" width="2.1" height="114.5"/>
							<rect x="53.3" y="57.6" fill="#FFFFFF" width="2.1" height="114.5"/>
							<rect x="57.8" y="57.6" fill="#FFFFFF" width="2.1" height="114.5"/>
							<rect x="62.3" y="57.6" fill="#FFFFFF" width="2.1" height="114.5"/>
							<rect x="66.8" y="57.6" fill="#FFFFFF" width="2.1" height="114.5"/>
							<rect x="71.3" y="57.6" fill="#FFFFFF" width="2.1" height="114.5"/>
							<rect x="75.8" y="57.6" fill="#FFFFFF" width="2.1" height="114.5"/>
							<rect x="80.2" y="57.6" fill="#FFFFFF" width="2.1" height="114.5"/>
							<rect x="84.7" y="57.6" fill="#FFFFFF" width="2.1" height="114.5"/>
							<rect x="89.2" y="57.6" fill="#FFFFFF" width="2.1" height="114.5"/>
							<rect x="93.7" y="57.6" fill="#FFFFFF" width="2.1" height="114.5"/>
							<rect x="98.2" y="57.6" fill="#FFFFFF" width="2.1" height="114.5"/>
							<rect x="102.7" y="57.6" fill="#FFFFFF" width="2.1" height="114.5"/>
							<rect x="107.2" y="57.6" fill="#FFFFFF" width="2.1" height="114.5"/>
							<rect x="111.7" y="57.6" fill="#FFFFFF" width="2.1" height="114.5"/>
							<rect x="116.2" y="57.6" fill="#FFFFFF" width="2.1" height="114.5"/>
							<rect x="120.7" y="57.6" fill="#FFFFFF" width="2.1" height="114.5"/>
							<rect x="125.1" y="57.6" fill="#FFFFFF" width="2.1" height="114.5"/>
							<rect x="129.6" y="57.6" fill="#FFFFFF" width="2.1" height="114.5"/>
							<rect x="134.1" y="57.6" fill="#FFFFFF" width="2.1" height="114.5"/>
							<rect x="138.6" y="57.6" fill="#FFFFFF" width="2.1" height="114.5"/>
							<rect x="143.1" y="57.6" fill="#FFFFFF" width="2.1" height="114.5"/>
							<rect x="147.6" y="57.6" fill="#FFFFFF" width="2.1" height="114.5"/>
							<rect x="152.1" y="57.6" fill="#FFFFFF" width="2.1" height="114.5"/>
							<rect x="156.6" y="57.6" fill="#FFFFFF" width="2.1" height="114.5"/>
							<rect x="161.1" y="57.6" fill="#FFFFFF" width="2.1" height="114.5"/>
							<rect x="165.6" y="57.6" fill="#FFFFFF" width="2.1" height="114.5"/>
							<rect x="170" y="57.6" fill="#FFFFFF" width="2.1" height="114.5"/>
							<rect x="174.5" y="57.6" fill="#FFFFFF" width="2.1" height="114.5"/>
							<rect x="179" y="57.6" fill="#FFFFFF" width="2.1" height="114.5"/>
						</g>
						<g>
							<g>
								<rect x="48.5" y="162.7" fill="#AFA9B5" width="130.7" height="2.1"/>
								<rect x="48.5" y="158.2" fill="#AFA9B5" width="130.7" height="2.1"/>
								<rect x="48.5" y="153.7" fill="#AFA9B5" width="130.7" height="2.1"/>
								<rect x="48.5" y="149.2" fill="#AFA9B5" width="130.7" height="2.1"/>
								<rect x="48.5" y="144.7" fill="#AFA9B5" width="130.7" height="2.1"/>
								<rect x="48.5" y="140.2" fill="#AFA9B5" width="130.7" height="2.1"/>
								<rect x="48.5" y="135.8" fill="#AFA9B5" width="130.7" height="2.1"/>
								<rect x="48.5" y="131.3" fill="#AFA9B5" width="130.7" height="2.1"/>
								<rect x="48.5" y="126.8" fill="#AFA9B5" width="130.7" height="2.1"/>
								<rect x="48.5" y="122.3" fill="#AFA9B5" width="130.7" height="2.1"/>
								<rect x="48.5" y="117.8" fill="#AFA9B5" width="130.7" height="2.1"/>
								<rect x="48.5" y="113.3" fill="#AFA9B5" width="130.7" height="2.1"/>
								<rect x="48.5" y="108.8" fill="#AFA9B5" width="130.7" height="2.1"/>
								<rect x="48.5" y="104.3" fill="#AFA9B5" width="130.7" height="2.1"/>
								<rect x="48.5" y="99.8" fill="#AFA9B5" width="130.7" height="2.1"/>
								<rect x="48.5" y="95.3" fill="#AFA9B5" width="130.7" height="2.1"/>
								<rect x="48.5" y="90.9" fill="#AFA9B5" width="130.7" height="2.1"/>
								<rect x="48.5" y="86.4" fill="#AFA9B5" width="130.7" height="2.1"/>
								<rect x="48.5" y="81.9" fill="#AFA9B5" width="130.7" height="2.1"/>
								<rect x="48.5" y="77.4" fill="#AFA9B5" width="130.7" height="2.1"/>
								<rect x="48.5" y="72.9" fill="#AFA9B5" width="130.7" height="2.1"/>
								<rect x="48.5" y="68.4" fill="#AFA9B5" width="130.7" height="2.1"/>
								<rect x="48.5" y="63.9" fill="#AFA9B5" width="130.7" height="2.1"/>
								<rect x="48.5" y="59.4" fill="#AFA9B5" width="130.7" height="2.1"/>
							</g>
							<rect x="48.5" y="162.2" fill="#FFFFFF" width="130.7" height="2.1"/>
							<rect x="48.5" y="157.8" fill="#FFFFFF" width="130.7" height="2.1"/>
							<rect x="48.5" y="153.3" fill="#FFFFFF" width="130.7" height="2.1"/>
							<rect x="48.5" y="148.8" fill="#FFFFFF" width="130.7" height="2.1"/>
							<rect x="48.5" y="144.3" fill="#FFFFFF" width="130.7" height="2.1"/>
							<rect x="48.5" y="139.8" fill="#FFFFFF" width="130.7" height="2.1"/>
							<rect x="48.5" y="135.3" fill="#FFFFFF" width="130.7" height="2.1"/>
							<rect x="48.5" y="130.8" fill="#FFFFFF" width="130.7" height="2.1"/>
							<rect x="48.5" y="126.3" fill="#FFFFFF" width="130.7" height="2.1"/>
							<rect x="48.5" y="121.8" fill="#FFFFFF" width="130.7" height="2.1"/>
							<rect x="48.5" y="117.3" fill="#FFFFFF" width="130.7" height="2.1"/>
							<rect x="48.5" y="112.9" fill="#FFFFFF" width="130.7" height="2.1"/>
							<rect x="48.5" y="108.4" fill="#FFFFFF" width="130.7" height="2.1"/>
							<rect x="48.5" y="103.9" fill="#FFFFFF" width="130.7" height="2.1"/>
							<rect x="48.5" y="99.4" fill="#FFFFFF" width="130.7" height="2.1"/>
							<rect x="48.5" y="94.9" fill="#FFFFFF" width="130.7" height="2.1"/>
							<rect x="48.5" y="90.4" fill="#FFFFFF" width="130.7" height="2.1"/>
							<rect x="48.5" y="85.9" fill="#FFFFFF" width="130.7" height="2.1"/>
							<rect x="48.5" y="81.4" fill="#FFFFFF" width="130.7" height="2.1"/>
							<rect x="48.5" y="76.9" fill="#FFFFFF" width="130.7" height="2.1"/>
							<rect x="48.5" y="72.4" fill="#FFFFFF" width="130.7" height="2.1"/>
							<rect x="48.5" y="68" fill="#FFFFFF" width="130.7" height="2.1"/>
							<rect x="48.5" y="63.5" fill="#FFFFFF" width="130.7" height="2.1"/>
							<rect x="48.5" y="59" fill="#FFFFFF" width="130.7" height="2.1"/>
						</g>
					</g>
				</g>
				<path fill="#EFE6BF" d="M51.9,145.5v13.9c0,2.5,2,4.5,4.5,4.5H168c2.5,0,4.5-2,4.5-4.5v-13.9H51.9z"/>
				<g>
					<circle fill="#433451" cx="112.3" cy="118.6" r="25.9"/>
					<g>
						<circle fill="#020927" cx="112.3" cy="118.6" r="18.1"/>
						<path opacity="0.5" fill="none" stroke="#FFFFFF" stroke-width="3.6223" stroke-linecap="round" stroke-miterlimit="10" d="
							M112.1,105.6c-5,0.1-9.4,3-11.5,7.4"/>
						<path opacity="0.5" fill="none" stroke="#FFFFFF" stroke-width="3.6223" stroke-linecap="round" stroke-miterlimit="10" d="
							M108.6,131.1c0.6,0.2,1.2,0.3,1.9,0.4c5.5,0.8,10.8-2,13.3-6.7"/>
					</g>
				</g>
				<g>
					<path fill="#EFE6BF" stroke="#695D74" stroke-width="1.7959" stroke-miterlimit="10" d="M121.2,91.1h-17.7
						c-2.5,0-4.5-2-4.5-4.5V74.4c0-2.5,2-4.5,4.5-4.5h17.7c2.5,0,4.5,2,4.5,4.5v12.3C125.6,89.1,123.6,91.1,121.2,91.1z"/>
					<g>
						<circle fill="#020927" cx="112.3" cy="80.6" r="9.3"/>
						<path opacity="0.5" fill="none" stroke="#FFFFFF" stroke-width="1.8563" stroke-linecap="round" stroke-miterlimit="10" d="
							M112.2,74c-2.5,0-4.8,1.5-5.9,3.8"/>
						<path opacity="0.5" fill="none" stroke="#FFFFFF" stroke-width="1.8563" stroke-linecap="round" stroke-miterlimit="10" d="
							M110.4,87c0.3,0.1,0.6,0.2,1,0.2c2.8,0.4,5.5-1,6.8-3.4"/>
					</g>
				</g>
				<g>
					<rect x="56.2" y="152.8" fill="#898092" width="2.8" height="4.2"/>
					<rect x="60.4" y="152.8" fill="#898092" width="2.8" height="4.2"/>
					<rect x="64.5" y="152.8" fill="#898092" width="2.8" height="4.2"/>
					<rect x="68.7" y="152.8" fill="#898092" width="2.8" height="4.2"/>
					<rect x="72.9" y="152.8" fill="#898092" width="2.8" height="4.2"/>
					<rect x="77.1" y="152.8" fill="#898092" width="2.8" height="4.2"/>
					<rect x="81.3" y="152.8" fill="#898092" width="2.8" height="4.2"/>
					<rect x="85.5" y="152.8" fill="#898092" width="2.8" height="4.2"/>
					<rect x="89.7" y="152.8" fill="#898092" width="2.8" height="4.2"/>
					<rect x="93.9" y="152.8" fill="#898092" width="2.8" height="4.2"/>
					<rect x="98.1" y="152.8" fill="#898092" width="2.8" height="4.2"/>
					<rect x="102.3" y="152.8" fill="#898092" width="2.8" height="4.2"/>
				</g>
				<rect x="121.1" y="148.6" fill="#E68694" width="48.3" height="12.7"/>
			</g>
		</g>
	</g>
</g>
</svg>
