<?xml version="1.0" encoding="utf-8"?>
<!-- Generator: Adobe Illustrator 18.1.1, SVG Export Plug-In . SVG Version: 6.00 Build 0)  -->
<svg version="1.1" xmlns="http://www.w3.org/2000/svg" xmlns:xlink="http://www.w3.org/1999/xlink" x="0px" y="0px"
	 viewBox="0 0 235.8 73.6" enable-background="new 0 0 235.8 73.6" xml:space="preserve">
<g id="Background">
	<g>
		<rect x="-58" y="-161" fill="#EDEDED" width="800" height="800"/>
	</g>
</g>
<g id="Objects">
	<polygon fill="#3C3C3B" points="2.4,73.3 2.4,56.1 6.3,56.1 6.3,63.3 8.5,63.3 8.5,61.8 17,61.8 17,59.6 18.3,59.6 18.3,46.4 
		26.1,46.4 26.1,51.6 31.4,51.6 31.4,53.8 34.6,53.8 34.6,51.6 36.5,51.6 36.5,49.9 39.9,49.9 39.9,52.2 41.6,52.2 41.6,60.6 
		43.2,60.6 43.2,62.5 44.9,62.5 44.9,60.6 46.2,59.4 46.2,52.2 51,52.2 51,43.8 52.6,43.8 52.6,36.7 55.3,36.7 55.3,31 57.8,31 
		57.8,36.9 59.4,36.9 59.4,35 60.7,35 60.7,37.1 63.3,37.1 63.3,38.8 65.8,38.8 65.8,47.7 67.8,47.7 67.8,53.2 70.4,53.2 70.4,56.4 
		72.7,56.4 72.7,42.3 73.4,42.3 73.4,39.6 74.4,39.6 74.4,32.7 75.8,32.7 75.8,39.1 77.7,39.1 77.7,42 81.1,42 81.1,43.5 82.8,43.5 
		82.8,39.3 87.7,39.3 87.7,43.8 90.9,43.8 90.9,52.1 93.8,52.1 93.8,32.8 100.4,32.8 100.4,31 101.7,31 101.7,32.5 103.9,32.5 
		103.9,37.7 105.1,37.7 105.1,48.4 107.3,48.4 107.3,49.6 111.7,49.6 111.7,51 116.2,51 116.2,57.7 128,57.7 128,59.1 131.6,59.1 
		131.6,57.1 135.5,57.1 135.5,62.2 142.9,62.2 142.9,53.3 144.8,53.3 144.8,51 150.1,51 150.1,52.8 152.6,52.8 152.6,57.2 
		159.2,57.2 159.2,59.1 162.4,59.1 162.4,61.5 164,61.5 164,64.9 167,64.9 167,62.5 169.2,62.5 169.2,56.7 173.5,56.7 173.5,34.9 
		183.5,34.9 183.5,49.4 185.7,49.4 185.7,65.2 189.7,65.2 189.7,36.6 191.4,36.6 191.4,19.3 194.8,19.3 194.8,15.7 195.7,15.7 
		195.7,18.8 198,18.8 198,17.6 199.9,17.6 199.9,29.8 203,29.8 203,65 205.2,65 205.2,49.3 206.1,48.3 206.1,34.9 209.6,34.9 
		209.6,32.5 212.8,32.5 212.8,34.9 215.7,34.9 215.7,31.3 219.1,31.3 219.1,52.7 221.3,52.7 221.3,60.5 223.3,60.5 223.3,58.6 
		226,58.6 226,60.6 228,60.6 228,65.4 235.8,65.4 235.8,73.3 	"/>
</g>
</svg>
