<?xml version="1.0" encoding="utf-8"?>
<!-- Generator: Adobe Illustrator 18.1.1, SVG Export Plug-In . SVG Version: 6.00 Build 0)  -->
<svg version="1.1" id="Layer_1" xmlns="http://www.w3.org/2000/svg" xmlns:xlink="http://www.w3.org/1999/xlink" x="0px" y="0px"
	 viewBox="12 4 738 336" enable-background="new 12 4 738 336" xml:space="preserve">
<text transform="matrix(1 0 0 1 -10.3993 174.5291)" fill="#D8A629" font-family="'MonotypeCorsiva'" font-size="292.8288" letter-spacing="-15">K</text>
<text transform="matrix(1 0 0 1 449.9424 228.5291)" font-family="'ArialMT'" font-size="292.8288"> </text>
<text transform="matrix(1 0 0 1 123.9576 332.4628)" fill="#D8A629" font-family="'MonotypeCorsiva'" font-size="292.8288" letter-spacing="-15">T</text>
<text transform="matrix(1 0 0 1 123.9576 134.4371)" font-family="'MonotypeCorsiva'" font-size="177.801" letter-spacing="-6">a</text>
<text transform="matrix(1 0 0 1 186.8229 134.4371)" enable-background="new    "><tspan x="0" y="0" font-family="'MonotypeCorsiva'" font-size="177.801" letter-spacing="-14">t</tspan><tspan x="42.8" y="0" font-family="'MonotypeCorsiva'" font-size="177.801" letter-spacing="-3">he</tspan></text>
<text transform="matrix(1 0 0 1 359.1356 134.4371)" font-family="'MonotypeCorsiva'" font-size="177.801">r</text>
<text transform="matrix(1 0 0 1 415.2186 134.4371)" enable-background="new    "><tspan x="0" y="0" font-family="'MonotypeCorsiva'" font-size="177.801" letter-spacing="-6">i</tspan><tspan x="35.7" y="0" font-family="'MonotypeCorsiva'" font-size="177.801" letter-spacing="-3">n</tspan></text>
<text transform="matrix(1 0 0 1 528.9062 134.4371)" font-family="'MonotypeCorsiva'" font-size="177.801">e</text>
<text transform="matrix(1 0 0 1 239 290.8814)"><tspan x="0" y="0" font-family="'MonotypeCorsiva'" font-size="177.8" letter-spacing="-10">r</tspan><tspan x="42.6" y="0" font-family="'MonotypeCorsiva'" font-size="177.8" letter-spacing="-7">am</tspan><tspan x="213.3" y="0" font-family="'MonotypeCorsiva'" font-size="177.8" letter-spacing="-3">m</tspan><tspan x="320" y="0" font-family="'MonotypeCorsiva'" font-size="177.8" letter-spacing="-10">e</tspan><tspan x="369.8" y="0" font-family="'MonotypeCorsiva'" font-size="177.8">ll</tspan></text>
<text transform="matrix(1 0 0 1 270 327.4628)"><tspan x="0" y="0" fill="#D8A629" font-family="'MonotypeCorsiva'" font-size="45" letter-spacing="-1">We</tspan><tspan x="51.3" y="0" fill="#D8A629" font-family="'MonotypeCorsiva'" font-size="45">b</tspan><tspan x="70.2" y="0" fill="#D8A629" font-family="'MonotypeCorsiva'" font-size="45" letter-spacing="-2"> </tspan><tspan x="77.4" y="0" fill="#D8A629" font-family="'MonotypeCorsiva'" font-size="45">D</tspan><tspan x="108" y="0" fill="#D8A629" font-family="'MonotypeCorsiva'" font-size="45" letter-spacing="-1">e</tspan><tspan x="121.5" y="0" fill="#D8A629" font-family="'MonotypeCorsiva'" font-size="45">si</tspan><tspan x="146.7" y="0" fill="#D8A629" font-family="'MonotypeCorsiva'" font-size="45" letter-spacing="-1">g</tspan><tspan x="162.8" y="0" fill="#D8A629" font-family="'MonotypeCorsiva'" font-size="45">n</tspan><tspan x="183.5" y="0" fill="#D8A629" font-family="'MonotypeCorsiva'" font-size="45" letter-spacing="-4"> </tspan><tspan x="188.9" y="0" fill="#D8A629" font-family="'MonotypeCorsiva'" font-size="45" letter-spacing="-3">W</tspan><tspan x="224.9" y="0" fill="#D8A629" font-family="'MonotypeCorsiva'" font-size="45" letter-spacing="-1">a</tspan><tspan x="242" y="0" fill="#D8A629" font-family="'MonotypeCorsiva'" font-size="45">n</tspan><tspan x="261.8" y="0" fill="#D8A629" font-family="'MonotypeCorsiva'" font-size="45">na</tspan><tspan x="301.4" y="0" fill="#D8A629" font-family="'MonotypeCorsiva'" font-size="45" letter-spacing="-2"> </tspan><tspan x="308.6" y="0" fill="#D8A629" font-family="'MonotypeCorsiva'" font-size="45" letter-spacing="-1">B</tspan><tspan x="333.8" y="0" fill="#D8A629" font-family="'MonotypeCorsiva'" font-size="45">e</tspan><tspan x="348.2" y="0" fill="#D8A629" font-family="'MonotypeCorsiva'" font-size="45">e</tspan></text>
</svg>
